<?xml version="1.0" standalone="no"?>
<!DOCTYPE svg PUBLIC "-//W3C//DTD SVG 1.1//EN" "http://www.w3.org/Graphics/SVG/1.1/DTD/svg11.dtd" >
<!--
2013-9-30: Created.
-->
<svg>
<metadata>
Created by iconfont
</metadata>
<defs>

<font id="iconfont" horiz-adv-x="1024" >
  <font-face
    font-family="iconfont"
    font-weight="500"
    font-stretch="normal"
    units-per-em="1024"
    ascent="896"
    descent="-128"
  />
    <missing-glyph />
    
    <glyph glyph-name="x" unicode="x" horiz-adv-x="1001"
d="M281 543q-27 -1 -53 -1h-83q-18 0 -36.5 -6t-32.5 -18.5t-23 -32t-9 -45.5v-76h912v41q0 16 -0.5 30t-0.5 18q0 13 -5 29t-17 29.5t-31.5 22.5t-49.5 9h-133v-97h-438v97zM955 310v-52q0 -23 0.5 -52t0.5 -58t-10.5 -47.5t-26 -30t-33 -16t-31.5 -4.5q-14 -1 -29.5 -0.5
t-29.5 0.5h-32l-45 128h-439l-44 -128h-29h-34q-20 0 -45 1q-25 0 -41 9.5t-25.5 23t-13.5 29.5t-4 30v167h911zM163 247q-12 0 -21 -8.5t-9 -21.5t9 -21.5t21 -8.5q13 0 22 8.5t9 21.5t-9 21.5t-22 8.5zM316 123q-8 -26 -14 -48q-5 -19 -10.5 -37t-7.5 -25t-3 -15t1 -14.5
t9.5 -10.5t21.5 -4h37h67h81h80h64h36q23 0 34 12t2 38q-5 13 -9.5 30.5t-9.5 34.5q-5 19 -11 39h-368zM336 498v228q0 11 2.5 23t10 21.5t20.5 15.5t34 6h188q31 0 51.5 -14.5t20.5 -52.5v-227h-327z" />
    

    
    <glyph glyph-name="chihe" unicode="&#58890;" d="M851.1398 308.2784v-14.325287455105439h-4.045423065507272c2.2885-5.6462 4.0454-11.5692 4.0454-18.1527v-343.3432133013817c0-30.0127-23.7739-54.3901-53.1501-54.3901-29.4233 0-53.2111 24.3775-53.2111 54.3901V275.8004073238345c0 6.5835 1.7559 12.5065 4.0594 18.1527h-4.059414153184422v14.325287455105439c-61.8416 32.478-106.4212 118.9843-106.4212 221.4788 0 130.2667 71.4725 235.8051 159.6323 235.8051 88.0969 0 159.5853-105.5374 159.5853-235.8051C957.575 427.2627 912.9954 340.7574 851.1398 308.2784L851.1398 308.2784zM354.6011 330.2495h-35.47840025903499v-36.29639104687022h-3.5737235381062264c1.9997-5.7541 3.5737-11.6881 3.5737-18.1527v-343.3432133013817c0-30.0127-23.7888-54.3901-53.1491-54.3901-29.4223 0-53.2121 24.3775-53.2121 54.3901V275.8004073238345c0 6.4646 1.59 12.3986 3.5737 18.1527h-3.5737235381062264v36.29639104687022h-35.477400895629486c-58.7985 0-106.4222 48.74-106.4222 108.8222V656.7371322243519c0 47.2729 29.7101 87.1559 70.9418 102.1328v-299.65783198991085c0-11.0995 7.9349-20.1403 17.7487-20.1403 9.8108 0 17.7317 9.0409 17.7317 20.1403V765.5623487275627H248.24186992885532v-306.35029450032874c0-11.0995 7.918-20.1403 17.7317-20.1403 9.7518 0 17.7457 9.0409 17.7457 20.1403V765.5623487275627h70.88184826265669v-306.35029450032874c0-11.0995 7.9969-20.1403 17.7457-20.1403 9.7988 0 17.7347 9.0409 17.7347 20.1403V758.8698862171448c41.2297-14.9758 70.9558-54.8598 70.9558-102.1328v-217.66542284331223C461.0383 378.9894 413.4007 330.2495 354.6011 330.2495L354.6011 330.2495z"  horiz-adv-x="1000" />

    
    <glyph glyph-name="erweima" unicode="&#58885;" d="M320 748l-256 0 0-256 256 0 0 256zM384 812l0 0 0-384-384 0 0 384 384 0zM128 684l128 0 0-128-128 0zM960 748l-256 0 0-256 256 0 0 256zM1024 812l0 0 0-384-384 0 0 384 384 0zM768 684l128 0 0-128-128 0zM320 108l-256 0 0-256 256 0 0 256zM384 172l0 0 0-384-384 0 0 384 384 0zM128 44l128 0 0-128-128 0zM448 812l64 0 0-64-64 0zM512 748l64 0 0-64-64 0zM448 684l64 0 0-64-64 0zM512 620l64 0 0-64-64 0zM448 556l64 0 0-64-64 0zM512 492l64 0 0-64-64 0zM448 428l64 0 0-64-64 0zM448 300l64 0 0-64-64 0zM512 236l64 0 0-64-64 0zM448 172l64 0 0-64-64 0zM512 108l64 0 0-64-64 0zM448 44l64 0 0-64-64 0zM512-20l64 0 0-64-64 0zM448-84l64 0 0-64-64 0zM512-148l64 0 0-64-64 0zM960 300l64 0 0-64-64 0zM64 300l64 0 0-64-64 0zM128 364l64 0 0-64-64 0zM0 364l64 0 0-64-64 0zM256 364l64 0 0-64-64 0zM320 300l64 0 0-64-64 0zM384 364l64 0 0-64-64 0zM576 300l64 0 0-64-64 0zM640 364l64 0 0-64-64 0zM704 300l64 0 0-64-64 0zM768 364l64 0 0-64-64 0zM832 300l64 0 0-64-64 0zM896 364l64 0 0-64-64 0zM960 172l64 0 0-64-64 0zM576 172l64 0 0-64-64 0zM640 236l64 0 0-64-64 0zM704 172l64 0 0-64-64 0zM832 172l64 0 0-64-64 0zM896 236l64 0 0-64-64 0zM960 44l64 0 0-64-64 0zM576 44l64 0 0-64-64 0zM640 108l64 0 0-64-64 0zM768 108l64 0 0-64-64 0zM832 44l64 0 0-64-64 0zM896 108l64 0 0-64-64 0zM960-84l64 0 0-64-64 0zM640-20l64 0 0-64-64 0zM704-84l64 0 0-64-64 0zM768-20l64 0 0-64-64 0zM832-84l64 0 0-64-64 0zM640-148l64 0 0-64-64 0zM768-148l64 0 0-64-64 0zM896-148l64 0 0-64-64 0z"  horiz-adv-x="1024" />

    
    <glyph glyph-name="fangwu" unicode="&#58952;" d="M901.143552 380.78848 560.960512 729.09184c-10.829824 10.848256-25.238528 16.823296-40.572928 16.823296-14.985216 0-29.166592-5.741568-39.944192-16.180224L343.501824 596.21248l0 5.234688c0 22.016-17.903616 39.927808-39.911424 39.927808l-69.598208 0c-22.006784 0-39.911424-17.911808-39.911424-39.927808l0-150.848512-69.899264-68.120576c-48.763904-49.887232-23.181312-99.33312-1.170432-121.997312 10.853376-11.154432 25.404416-17.296384 40.971264-17.29536 4.303872 0 8.559616 0.47616 12.720128 1.419264l0-275.519488c0-41.209856 33.511424-74.735616 74.701824-74.735616l173.954048 0c22.006784 0 39.9104 17.903616 39.9104 39.911424L465.268736 90.855168c0 6.750208 5.499904 12.240896 12.259328 12.240896l69.597184 0c6.760448 0 12.260352-5.490688 12.260352-12.240896l0-156.593152c0-22.006784 17.903616-39.911424 39.911424-39.911424L773.266432-105.649408c41.182208 0 74.686464 33.52576 74.686464 74.735616L847.952896 243.605248c4.238336-1.002496 8.435712-1.507328 12.546048-1.507328 15.279104 0 29.654016 5.942272 40.475648 16.731136 10.840064 10.804224 25.39008 29.730816 25.388032 71.714816C926.3616 345.85984 926.362624 353.071872 901.143552 380.78848zM239.112192 484.245248l0 89.58464c0 6.759424 5.51424 12.258304 12.292096 12.258304l34.791424 0c6.767616 0 12.274688-5.49888 12.274688-12.258304l0-31.747072L239.112192 484.245248zM564.5056 148.126464 460.148736 148.126464c-22.006784 0-39.9104-17.903616-39.9104-39.911424l0-156.557312c0-6.769664-5.506048-12.276736-12.274688-12.276736l-156.55936 0c-16.360448 0-29.6704 13.326336-29.6704 29.705216L221.733888 276.539136l292.50048 285.57312c2.618368 2.522112 4.452352 3.801088 5.451776 3.801088 0.628736 0 2.23232-0.5376 5.902336-4.129792l277.331968-285.386752 0-307.309568c0-16.37888-13.302784-29.705216-29.654016-29.705216L616.708096-60.617984c-6.777856 0-12.292096 5.507072-12.292096 12.276736L604.416 108.216064C604.416 130.222848 586.512384 148.126464 564.5056 148.126464zM485.505024 598.51136c-7.542784-6.614016-309.777408-303.903744-312.807424-306.871296-18.089984-11.956224-51.2 20.470784-26.624 48.971776 15.277056 15.25248 365.758464 356.800512 365.758464 356.800512 2.310144 2.250752 5.342208 3.489792 8.538112 3.489792 1.907712 0 5.571584-0.468992 8.6528-3.587072l331.987968-343.16288c38.726656-34.021376 0.070656-71.482368-17.318912-58.356736-100.959232 103.676928-284.259328 297.280512-290.702336 303.25248-15.787008 14.631936-21.265408 20.709376-31.809536 20.709376C510.564352 619.758336 501.922816 612.906752 485.505024 598.51136z"  horiz-adv-x="1024" />

    
    <glyph glyph-name="gouwuche" unicode="&#59081;" d="M753.429-27.004c-43.1 0-78.042-33.971-78.042-77.377 0-43.431 34.942-78.61 78.042-78.61 43.097 0 78.041 35.18 78.041 78.61C831.47-60.974 796.526-27.004 753.429-27.004zM328.326-27.004c-43.123 0-75.671-32.76-75.671-76.168 0-43.429 32.549-78.61 75.671-78.61 43.099 0 78.041 35.182 78.041 78.61C406.367-59.763 371.425-27.004 328.326-27.004zM1022.804 282.058l-0.829 268.522c0 0-3.889 80.815-73.537 80.815L210.931 630.4l-16.262 39.637c0 0-16.453 117.963-95.727 117.963 0 0-95.75 0-95.75-116.185l80.294 0.118c0 0 98.333-565.8 98.333-582.846 0-21.383 17.165-77.377 38.405-77.377l725.369 0c21.218 0 38.404 36.649 38.404 58.009 0 21.384-17.187 58.058-38.404 58.058L273.067 127.777l-19.084 77.165 693.651 3.058C947.634 207.999 1022.804 207.098 1022.804 282.058zM330.697 321.245c0-21.36-17.187-38.689-38.405-38.689l-1.208 0c-21.217 0-38.428 17.329-38.428 38.689l0 38.689c0 21.383 17.211 38.712 38.428 38.712l1.208 0c21.218 0 38.405-17.33 38.405-38.712L330.697 321.245zM330.697 476.024c0-21.36-17.187-38.688-38.405-38.688L253.84 437.336c-21.193 0-38.404 17.329-38.404 38.688l0 38.712c0 21.36 17.211 38.689 38.404 38.689l38.452 0c21.218 0 38.405-17.329 38.405-38.689L330.697 476.024zM484.432 321.245c0-21.36-17.211-38.689-38.428-38.689l-38.452 0c-21.193 0-38.404 17.329-38.404 38.689l0 38.689c0 21.383 17.211 38.712 38.404 38.712l38.452 0c21.217 0 38.428-17.33 38.428-38.712L484.432 321.245zM484.432 476.024c0-21.36-17.211-38.688-38.428-38.688l-38.452 0c-21.193 0-38.404 17.329-38.404 38.688l0 38.712c0 21.36 17.211 38.689 38.404 38.689l38.452 0c21.217 0 38.428-17.329 38.428-38.689L484.432 476.024zM638.145 321.245c0-21.36-17.212-38.689-38.427-38.689l-38.43 0c-21.217 0-38.428 17.329-38.428 38.689l0 38.689c0 21.383 17.211 38.712 38.428 38.712l38.43 0c21.215 0 38.427-17.33 38.427-38.712L638.145 321.245zM638.145 476.024c0-21.36-17.212-38.688-38.427-38.688l-38.43 0c-21.217 0-38.428 17.329-38.428 38.688l0 38.712c0 21.36 17.211 38.689 38.428 38.689l38.43 0c21.215 0 38.427-17.329 38.427-38.689L638.145 476.024zM791.858 321.245c0-21.36-17.212-38.689-38.429-38.689l-38.428 0c-21.217 0-38.429 17.329-38.429 38.689l0 38.689c0 21.383 17.212 38.712 38.429 38.712l38.428 0c21.217 0 38.429-17.33 38.429-38.712L791.858 321.245zM791.858 476.024c0-21.36-17.212-38.688-38.429-38.688l-38.428 0c-21.217 0-38.429 17.329-38.429 38.688l0 38.712c0 21.36 17.212 38.689 38.429 38.689l38.428 0c21.217 0 38.429-17.329 38.429-38.689L791.858 476.024zM945.571 321.245c0-21.36-17.211-38.689-38.43-38.689l-38.428 0c-21.218 0-38.429 17.329-38.429 38.689l0 38.689c0 21.383 17.211 38.712 38.429 38.712l38.428 0c21.219 0 38.43-17.33 38.43-38.712L945.571 321.245zM945.571 476.024c0-21.36-17.211-38.688-38.43-38.688l-38.428 0c-21.218 0-38.429 17.329-38.429 38.688l0 38.712c0 21.36 17.211 38.689 38.429 38.689l38.428 0c21.219 0 38.43-17.329 38.43-38.689L945.571 476.024z"  horiz-adv-x="1029" />

    
    <glyph glyph-name="shouji" unicode="&#59102;" d="M740.854245 646.897731 278.138718 646.897731 278.138718 701.926022c0 6.458085 5.247514 11.715833 11.7056 11.715833l439.305351 0c6.458085 0 11.7056-5.257747 11.7056-11.715833L740.855268 646.897731zM740.854245 85.91411 278.138718 85.91411 278.138718 613.867454l462.715527 0L740.854245 85.91411zM740.854245-100.473951c0-6.447852-5.247514-11.695367-11.7056-11.695367l-439.305351 0c-6.458085 0-11.7056 5.247514-11.7056 11.695367L278.137695 52.882809l462.715527 0L740.853222-100.473951zM729.148645 746.672132l-439.305351 0c-24.711821 0-44.756343-20.044522-44.756343-44.74611l0-802.39895c0-24.722054 20.044522-44.725644 44.756343-44.725644l439.305351 0c24.711821 0 44.756343 20.00359 44.756343 44.725644L773.904988 701.926022C773.904988 726.62761 753.86149 746.672132 729.148645 746.672132zM459.919854-13.066205l99.153254 0 0-33.040511-99.153254 0 0 33.040511Z"  horiz-adv-x="1024" />

    
    <glyph glyph-name="jingxuan" unicode="&#58961;" d="M937.220437 449.888l-126.848 0c0 0-41.408-1.344-41.408 41.536 0 0-1.344 20.096-1.344 45.568 0 25.472 42.304 44.224 42.304 84.48 0 40.192 0 41.536 0 41.536s3.136 87.104-82.304 87.104c-22.784 0-36.096 0-44.032 0 0 0-58.752-10.752-84.096-84.416C574.084437 591.968 468.612437 319.904 341.764437 319.904L341.764437 364.128c0 0-2.688 41.536-45.376 41.536L44.036437 405.664C44.036437 405.664 0.004437 404.32 0.004437 364.128l0-470.016c0 0-1.344-42.88 42.752-42.88 5.312 0 254.976-1.344 254.976-1.344S341.764437-146.08 341.764437-105.888L340.484437-63.904l85.44 1.344c0 0 70.784-3.584 86.784-47.808 16-44.224 44.032-37.952 44.032-37.952l340.416 0c0 0 126.848-2.24 126.848 126.464l0 384.64C1024.004437 362.784 1022.660437 449.888 937.220437 449.888zM981.700437-21.92c0 0-3.136-84.864-84.544-84.864L598.148437-106.784c0 0-34.688 0.448-42.688 37.952-8 37.504-26.688 48.704-41.408 48.704-14.72 0-174.464-1.344-174.464-1.344L339.588437 280.544c0 0 122.368-28.16 213.184 168 80.128 183.616 104.128 215.808 104.128 215.808s13.376 43.776 52.096 43.776c38.72 0 59.648-7.168 59.648-42.432 0-17.408 0-15.68 0-46.912-53.376-24.128-42.304-81.728-42.304-81.728L726.340437 490.08c0-87.104 84.096-85.76 84.096-85.76l88.576 1.344c0 0 82.752 4.032 82.752-84.416L981.764437-21.92z"  horiz-adv-x="1025" />

    
    <glyph glyph-name="bf-message" unicode="&#58951;" d="M293.663 400.338c-36.872 0-66.788-29.927-66.788-66.788 0-36.894 29.916-66.789 66.788-66.789 36.874 0 66.789 29.894 66.789 66.789-0.001 36.862-29.916 66.788-66.789 66.788M516.29 400.338c-36.873 0-66.789-29.927-66.789-66.788 0-36.894 29.916-66.789 66.789-66.789 36.873 0 66.789 29.894 66.789 66.789 0 36.862-29.916 66.788-66.789 66.788M516.29 734.279c-270.502 0-489.781-179.44-489.781-400.73 0-108.564 52.96-206.877 138.642-279.024l-49.59-210.758 263.327 105.304c43.634-10.381 89.66-16.252 137.402-16.252 270.502 0 489.781 179.384 489.781 400.73 0 221.29-219.279 400.73-489.781 400.73M516.29-22.655c-42.439 0-85.181 5.065-127.055 15.067-3.413 0.804-6.892 1.217-10.349 1.217-5.631 0-11.261-1.065-16.523-3.194l-183.841-73.54 29.958 127.434c3.869 16.338-1.827 33.439-14.654 44.233-79.179 66.677-122.792 153.706-122.792 244.987 0 196.397 199.756 356.205 445.255 356.205 245.521 0 445.255-159.807 445.255-356.205 0-196.409-199.734-356.205-445.255-356.205M738.918 400.338c-36.873 0-66.788-29.927-66.788-66.788 0-36.894 29.914-66.789 66.788-66.789 36.872 0 66.789 29.894 66.789 66.789-0.001 36.862-29.917 66.788-66.789 66.788z"  horiz-adv-x="1024" />

    
    <glyph glyph-name="wan" unicode="&#59007;" d="M893.836475 780.767536 422.833191 780.767536l0-64.84896 471.003284 0L893.836475 780.767536zM327.269695 348.163817l40.101323 0L367.371018 409.599028l-40.101323 0L327.269695 704.826959l45.221948 0L372.491643 766.26217l-258.538311 0 0-61.435211 44.36851 0L158.321842 409.599028l-40.101323 0 0-61.435211 40.101323 0L158.321842 62.319603l-51.194986 0 0-61.435211 271.337825 0L378.464681 62.319603l-51.194986 0L327.269695 348.163817zM916.873144 467.620489l0 64.846914L401.503397 532.467403l0-64.846914 58.022485 0-58.022485-480.388025 191.131085 0 58.872852 480.388025 22.185278 0 0-480.388025 243.179508 0 0 64.84896L863.971283 52.081425 863.971283 467.620489 916.873144 467.620489z"  horiz-adv-x="1024" />

    
    <glyph glyph-name="arrfill_u-copy" unicode="&#58953;" d="M259.677 570.685h508.831c28.16 0 50.934-22.598 50.934-50.757 0-13.093-5.024-24.932-13.092-33.901l-251.633-335.755c-16.859-22.24-48.607-26.905-71.024-10.044-3.947 2.871-7.355 6.281-10.045 10.045l-254.51 339.338c-16.676 22.241-12.193 54.16 10.225 70.844 9.15 6.996 19.73 10.225 30.31 10.225v0z"  horiz-adv-x="1024" />

    
    <glyph glyph-name="youxi" unicode="&#59044;" d="M324.173682 63.679577c-149.630902-4.109598-202.842825 102.034884-202.842825 227.889267 0 125.870756 38.885636 227.889267 202.842825 227.889267l375.652636 0c140.888797 0 202.842825-102.018511 202.842825-227.889267 0-125.854383-51.720965-228.005924-202.842825-227.889267L324.173682 63.679577zM387.977847 324.126354l-42.37511 0 0 49.609884c0 16.561188-12.955056 29.971615-28.936029 29.971615-15.980973 0-28.941146-13.410428-28.941146-29.971615l0-49.609884-49.605791 0c-16.557094 0-29.971615-12.955056-29.971615-28.940123 0-15.97688 13.418614-28.936029 29.971615-28.936029l49.605791 0 0-42.37511c0-16.548908 12.960173-29.971615 28.941146-29.971615 15.980973 0 28.936029 13.422707 28.936029 29.971615l0 42.37511 42.37511 0c16.557094 0 29.971615 12.95915 29.971615 28.936029C417.948439 311.171298 404.533918 324.126354 387.977847 324.126354L387.977847 324.126354zM608.581174 325.490421c-16.73515 0-30.30419-13.56597-30.30419-30.30419 0-16.731056 13.570063-30.300097 30.30419-30.300097s30.30112 13.570063 30.30112 30.300097C638.882294 311.924451 625.3153 325.490421 608.581174 325.490421L608.581174 325.490421zM691.911044 408.825408c-16.73515 0-30.300097-13.570063-30.300097-30.300097 0-16.738219 13.56597-30.305213 30.300097-30.305213s30.30419 13.566994 30.30419 30.305213C722.216257 395.255345 708.646194 408.825408 691.911044 408.825408L691.911044 408.825408zM691.911044 242.157481c-16.73515 0-30.300097-13.566994-30.300097-30.30112s13.56597-30.30419 30.300097-30.30419 30.30419 13.570063 30.30419 30.30419S708.646194 242.157481 691.911044 242.157481L691.911044 242.157481zM775.246031 325.490421c-16.73515 0-30.305213-13.56597-30.305213-30.30419 0-16.731056 13.571087-30.300097 30.305213-30.300097s30.30419 13.570063 30.30419 30.300097C805.550221 311.924451 791.980157 325.490421 775.246031 325.490421L775.246031 325.490421zM542.724257 562.981371"  horiz-adv-x="1024" />

    
    <glyph glyph-name="didiantubiao" unicode="&#58924;" d="M814.250667 680.049778C814.250667 731.790222 772.152889 773.888 720.412444 773.888 668.672 773.888 626.574222 731.790222 626.574222 680.049778 626.574222 628.280889 668.672 586.154667 720.412444 586.154667 772.152889 586.154667 814.250667 628.280889 814.250667 680.049778L814.250667 680.049778ZM720.412444 628.821333C692.195556 628.821333 669.240889 651.804444 669.240889 680.049778 669.240889 708.266667 692.195556 731.221333 720.412444 731.221333 748.600889 731.221333 771.584 708.266667 771.584 680.049778 771.584 651.804444 748.600889 628.821333 720.412444 628.821333L720.412444 628.821333ZM972.828444 396.686222C961.137778 398.421333 950.414222 390.087111 948.849778 378.396444 947.256889 366.705778 955.477333 355.982222 967.139556 354.417778 1220.949333 320.199111 1398.186667 234.069333 1398.186667 145.038222 1398.186667 36.181333 1125.859556-80.384 720.412444-80.384 314.993778-80.384 42.666667 36.181333 42.666667 145.038222 42.666667 234.211556 220.302222 320.369778 474.737778 354.588444 486.4 356.124444 494.563556 366.876444 492.999111 378.538667 491.434667 390.229333 480.682667 398.563556 468.992 396.856889 184.120889 358.570667 0 259.726222 0 145.038222 0-5.290667 316.444444-123.050667 720.412444-123.050667 1124.408889-123.050667 1440.853333-5.290667 1440.853333 145.038222 1440.853333 259.584 1257.130667 358.343111 972.828444 396.686222L972.828444 396.686222ZM566.442667 196.465778C578.133333 197.802667 586.552889 208.384 585.216 220.074667 583.907556 231.765333 573.297778 239.957333 561.607111 238.848 463.189333 227.640889 345.912889 202.268444 345.912889 145.038222 345.912889 64.227556 581.319111 42.666667 720.412444 42.666667 859.534222 42.666667 1094.912 64.227556 1094.912 145.038222 1094.912 202.126222 978.318222 227.470222 880.497778 238.677333 868.949333 239.843556 858.225778 231.623111 856.888889 219.904 855.523556 208.213333 863.914667 197.632 875.633778 196.295111 1013.845333 180.451556 1050.140444 151.438222 1052.302222 145.521778 1045.873778 124.529778 926.151111 85.333333 720.412444 85.333333 514.702222 85.333333 395.008 124.529778 388.522667 144.554667 390.684444 151.466667 427.292444 180.593778 566.442667 196.465778L566.442667 196.465778ZM720.412444 144.839111C725.76 144.839111 731.107556 146.830222 735.260444 150.812444 744.988444 160.256 974.819556 385.251556 974.819556 623.160889 974.819556 773.603556 860.672 896 720.412444 896 580.152889 896 466.062222 773.603556 466.062222 623.160889 466.062222 389.12 695.665778 160.568889 705.450667 150.954667 709.575111 146.887111 715.008 144.839111 720.412444 144.839111L720.412444 144.839111ZM720.412444 853.333333C837.148444 853.333333 932.152889 750.08 932.152889 623.160889 932.152889 436.963556 771.015111 250.680889 720.526222 196.920889 670.094222 251.306667 508.728889 439.722667 508.728889 623.160889 508.728889 750.08 603.704889 853.333333 720.412444 853.333333L720.412444 853.333333Z"  horiz-adv-x="1451" />

    
    <glyph glyph-name="jiantou" unicode="&#58895;" d="M224.771574 403.606676 682.256809 858.409553c8.521287 8.340291 8.533353 22.161138 0.019306 30.865834-8.517667 8.702283-22.332481 8.997909-30.858594 0.656412L179.007364 420.293292c-4.612982-4.512831-6.710121-10.629286-6.334856-16.672136-0.381298-6.051296 1.714634-12.177404 6.332443-16.696268L651.415108-82.713619c8.5237-8.340291 22.342134-8.045871 30.858594 0.657618 8.515254 8.705903 8.505601 22.52313-0.019306 30.863421L224.771574 403.606676z"  horiz-adv-x="1024" />

    
    <glyph glyph-name="jiantou-copy" unicode="&#58896;" d="M65.838 382.807c0-247.485 200.635-448.185 448.187-448.185s448.187 200.702 448.187 448.185c0 247.552-200.632 448.187-448.187 448.187-247.552 0.001-448.187-200.634-448.187-448.187zM906.189 382.807c0-216.601-175.563-392.164-392.164-392.164s-392.232 175.529-392.232 392.164 175.631 392.198 392.232 392.198c216.6-0.003 392.164-175.599 392.164-392.198zM274.946 509.839c-10.996-10.923-10.996-28.641 0-39.567l214.432-214.462c6.792-6.725 15.966-8.824 24.647-7.285 8.685-1.54 17.927 0.599 24.65 7.284l214.499 214.462c10.925 10.96 10.925 28.679 0 39.567-10.923 10.993-28.71 10.993-39.636 0l-199.514-199.443-199.443 199.443c-10.993 10.994-28.71 10.994-39.636 0z"  horiz-adv-x="1024" />

    
    <glyph glyph-name="xiazai19" unicode="&#58891;" d="M226.048 770.714c164.297 164.7 430.674 164.7 594.954 0 164.308-164.704 126.054-431.749-38.25-596.449l-259.219-298.213-259.229 298.213c-164.311 164.7-202.551 431.746-38.257 596.449zM523.53-15.507l205.155 243.985c134.414 134.755 172.663 353.26 38.25 488.011-134.438 134.755-352.375 134.755-486.799 0-134.42-134.752-96.171-353.253 38.253-488.011l205.141-243.985zM523.53 702.539c-105.615 0-191.232-85.839-191.232-191.71 0-105.868 85.617-191.706 191.232-191.706 105.632 0 191.229 85.839 191.229 191.706 0 105.868-85.596 191.71-191.229 191.71zM523.53 395.814c-63.369 0-114.739 51.483-114.739 115.016s51.367 115.019 114.739 115.019c63.372 0 114.749-51.487 114.749-115.019s-51.377-115.016-114.749-115.016z"  horiz-adv-x="1024" />

    
    <glyph glyph-name="hot" unicode="&#59120;" d="M919.8 396.6c-53.8 123.6-109.4 190.6-129.4 244.2-21.2 57-0.2 105.4-0.2 105.4-44.2 8.8-77-33.4-101.8-76-15.4-26.4-35.4-186.8-66.8-226.2-5.4-6.8-16-5-19 3C495.6 736 553 890.8 553 890.8c-168.4-63.6-210.4-228-218.4-253.6-15.4-49.2-9-236.2-9-236.2-0.6-12.8-18-16-23.4-4.4 0 0-44.4 109.4-49.6 169.4-4.2 49.2-4.6 39-4.6 39C172 534.6 87.2 374.8 87.2 267.4c0-215.6 190.2-390.4 424.8-390.4s424.8 174.8 424.8 390.4C936.8 313.4 936.8 357.6 919.8 396.6z"  horiz-adv-x="1024" />

    
    <glyph glyph-name="arrow-left-copy" unicode="&#58897;" d="M324.613 747.591c0 0 413.412-317.444 413.412-317.444 28.734-22.060 28.734-69.89 0-91.951 0 0-413.412-317.444-413.412-317.444-26.633-20.453-59.941 5.128-59.942 46.038 0 0 0 634.826 0 634.826 0 40.847 33.308 66.43 59.941 45.976 0 0 0 0 0 0z"  horiz-adv-x="1024" />

    
    <glyph glyph-name="remen" unicode="&#58913;" d="M991.51488 464.6848c0-66.20416-53.6768-119.8784-119.8784-119.8784-66.20416 0-119.8784 53.67552-119.8784 119.8784l0 0 0 0 0 0c0-66.20416-53.67552-119.8784-119.8784-119.8784-66.20416 0-119.87968 53.67552-119.87968 119.8784l0 0 0 0 0 0 0 0c0-66.20416-53.67552-119.8784-119.8784-119.8784-66.20288 0-119.8784 53.67552-119.8784 119.8784l0 0 0 0 0 0 0 0c0-66.20416-53.67552-119.8784-119.8784-119.8784-66.20288 0-119.8784 53.67552-119.8784 119.8784l0 0 0 0 0 0L116.7744 689.45664 907.2256 689.45664 991.51488 464.6848 991.51488 464.6848 991.51488 464.6848 991.51488 464.6848zM841.66528 734.41024 182.33344 734.41024c-24.82944 0-44.9536 20.12544-44.9536 44.95488 0 24.82944 20.12544 44.9536 44.9536 44.9536l659.33184 0c24.83072 0 44.95488-20.12544 44.95488-44.9536C886.62016 754.53568 866.496 734.41024 841.66528 734.41024L841.66528 734.41024zM167.34848 300.58496l0 0.03072c4.3008 0.38912 8.52736 1.03296 12.73728 1.75232 0.89856 0.16384 1.8432 0.22528 2.74176 0.40448 1.9328 0.35968 3.80672 0.91392 5.72544 1.34912 8.13568 1.85728 16.1088 4.16512 23.76576 7.16288l0-0.02944 0 0 0-221.19168 599.392 0L811.71072 311.23968l0 0 0 0.02944c7.64288-2.9824 15.60064-5.29024 23.73632-7.14752 1.91872-0.4352 3.80544-0.98944 5.75488-1.34912 0.89856-0.16384 1.82784-0.23936 2.7264-0.38912 4.2112-0.71936 8.43648-1.3632 12.73728-1.75232l0-0.03072c4.91392-0.48 9.92-0.7488 14.9696-0.7488 10.25024 0 20.2432 1.06368 29.96992 2.848l0-302.54336c0-24.82944-20.12544-44.95488-44.9536-44.95488L167.34848-44.79872c-24.82944 0-44.95488 20.12416-44.95488 44.95488L122.3936 302.69824c9.72544-1.78304 19.71968-2.848 29.96992-2.848C157.42848 299.85024 162.41792 300.12032 167.34848 300.58496L167.34848 300.58496z"  horiz-adv-x="1024" />

    
    <glyph glyph-name="tanhao" unicode="&#59006;" d="M529.655172 878.344828c-271.889655 0-494.344828-222.455172-494.344828-494.344828 0-271.889655 222.455172-494.344828 494.344828-494.344828 271.889655 0 494.344828 222.455172 494.344828 494.344828C1024 655.889655 801.544828 878.344828 529.655172 878.344828L529.655172 878.344828M529.655172 30.896552c-38.841379 0-70.62069 31.77931-70.62069 70.62069 0 38.841379 31.77931 70.62069 70.62069 70.62069 38.841379 0 70.62069-31.77931 70.62069-70.62069C600.275862 62.675862 568.496552 30.896552 529.655172 30.896552L529.655172 30.896552M621.462069 564.082759C621.462069 564.082759 621.462069 560.551724 621.462069 564.082759L621.462069 564.082759 621.462069 564.082759 621.462069 564.082759 621.462069 564.082759 621.462069 564.082759c0-3.531034-60.027586-282.482759-60.027586-282.482759 0 0 3.531034 21.186207 0 0-3.531034-21.186207-14.124138-31.77931-31.77931-31.77931-17.655172 0-28.248276 14.124138-31.77931 35.310345-7.062069 21.186207-60.027586 271.889655-60.027586 271.889655 0 0 0 0 0 0l0 0c0 0 0 0 0 0l0 0 0 0c0 0 0 0 0 0l0 0 0 0 0 0c0 0 0 0 0 0l0 0c0 0 0 0 0 0 0 0 0 0 0 0l0 0c0 0 0 0 0 0l0 0 0 0 0 0 0 0 0 0 0 0 0 0c0 0 0 0 0 0 0 7.062069-3.531034 14.124138-3.531034 17.655172 0 52.965517 42.372414 95.337931 95.337931 95.337931 52.965517 0 95.337931-42.372414 95.337931-95.337931C624.993103 574.675862 621.462069 567.613793 621.462069 564.082759L621.462069 564.082759M621.462069 564.082759"  horiz-adv-x="1060" />

    
    <glyph glyph-name="location" unicode="&#58962;" d="M518.62-32.972l-11.992 14.294c-11.992 14.39-296.145 354.856-296.145 517.174 0 166.827 138.239 302.572 308.232 302.572s308.232-135.745 308.232-302.572c0-162.319-284.153-502.784-296.241-517.174l-12.087-14.294zM518.62 769.794c-152.725 0-276.958-121.739-276.958-271.298 0-133.155 222.372-415.294 276.958-482.543 54.586 67.249 276.958 349.388 276.958 482.543 0 149.559-124.233 271.298-276.958 271.298zM518.62 435.468c-54.682 0-99.195 44.512-99.195 99.195s44.512 99.195 99.195 99.195 99.195-44.512 99.195-99.195-44.417-99.195-99.195-99.195zM518.62 602.583c-37.509 0-67.92-30.506-67.92-67.92s30.506-67.92 67.92-67.92c37.509 0 67.92 30.506 67.92 67.92s-30.411 67.92-67.92 67.92z"  horiz-adv-x="1024" />

    
    <glyph glyph-name="ditudizhi" unicode="&#58892;" d="M661.778 571.709c0 83.886-67.187 151.979-149.778 151.979s-149.778-68.093-149.778-151.979 67.187-151.979 149.778-151.979 149.778 68.222 149.778 151.979zM608.702 571.709c0-54.241-43.366-98.385-96.573-98.385s-96.573 44.144-96.573 98.385 43.366 98.385 96.573 98.385c25.632 0 49.711-10.098 67.963-28.35 18.383-18.641 28.609-43.497 28.609-70.035zM479.507-0.736c7.638-11.133 19.807-17.734 32.622-17.734 12.946 0 25.115 6.603 32.622 17.734l15.276 22.395c86.475 127.124 266.416 391.598 266.287 550.049 0 175.927-140.846 318.975-314.055 318.975-173.21 0-314.185-143.175-314.185-318.975 0-158.193 179.293-422.019 265.509-548.884l15.923-23.559zM250.892 571.709c0 146.154 117.156 265.121 261.108 265.121s261.108-118.838 261.108-265.121c0-141.753-179.811-406.097-256.577-518.98l-4.53-6.603-4.402 6.473c-76.766 112.883-256.706 377.358-256.706 519.11zM657.118 76.935c0 0-15.405 2.718-15.405-14.758 0-15.276 12.169-17.606 12.169-17.606 53.852-17.346 77.931-41.036 77.931-56.959 0-24.596-87.77-61.749-219.942-61.749s-219.942 37.153-219.942 61.749c0 15.923 24.079 39.613 77.931 56.959 0 0 12.169 1.683 12.169 17.734 0 19.677-15.405 14.628-15.405 14.628-98.514-22.267-148.483-52.299-148.483-89.324 0-61.879 128.937-110.295 293.601-110.295 164.665 0 293.601 48.416 293.601 110.295 0.258 37.153-49.711 67.187-148.224 89.324z"  horiz-adv-x="1024" />

    
    <glyph glyph-name="shenghuofuwu" unicode="&#59003;" d="M200.70825 360.96c14.336 13.312 36.352 12.288 49.664-1.536 1.536-1.536 2.56-3.584 3.584-5.12 18.944-15.36 136.704-109.056 184.32-156.16 43.52-43.52 27.648-152.064 27.648-175.104 0-32.256-51.2-69.632-111.616-69.632-59.904 0-90.112 26.624-122.88 61.44-33.792 36.352-74.752 84.48-147.456 160.768-86.016 90.112-83.968 314.88-83.968 314.88h0.512c0 28.672 23.552 51.712 52.736 51.712 29.184 0 53.248-23.04 53.248-52.224h0.512s1.024-164.352 45.568-211.456c45.056-46.592 83.456-67.584 112.64-81.408 29.696-13.824 13.312 19.456 5.632 27.648-7.68 7.68-70.656 84.992-70.656 84.992l1.024 0.512c-1.024 0.512-1.536 1.024-2.56 1.536-12.8 14.336-12.288 36.352 2.048 49.152m313.856-61.952c-102.912 86.016-316.416 200.192-315.904 317.44 1.536 204.288 246.272 274.944 315.392 82.432 62.976 183.808 312.832 138.752 313.344-66.56 1.024-116.736-210.432-247.296-312.832-333.312m425.984-122.88c-72.704-76.288-113.664-124.416-147.456-160.768-32.256-35.328-62.976-61.44-122.88-61.44-60.416 0-111.616 37.376-111.616 69.632 0 23.04-15.872 131.584 27.648 175.104 47.616 47.104 165.376 143.872 184.32 159.744 1.024 1.536 2.048 3.584 3.584 5.632 13.312 13.824 35.328 14.336 49.664 1.536 14.336-13.312 14.848-34.816 1.536-48.64-0.512-0.512-1.536-0.512-2.048-1.536l1.024-1.024s-62.976-80.384-70.656-88.064-24.064-41.472 5.632-27.648c29.184 14.336 67.584 34.816 112.64 81.408 45.056 47.104 45.568 211.456 45.568 211.456h0.512c0 28.672 23.552 52.224 53.248 52.224 29.184 0 52.736-23.04 52.736-51.712h0.512c0-1.024 2.56-225.792-83.968-315.904z"  horiz-adv-x="1024" />

    
    <glyph glyph-name="yonghu" unicode="&#58881;" d="M640.846 259.286c79.57 46.115 133.096 132.191 133.096 230.776 0 147.21-119.337 266.547-266.546 266.547-147.21 0-266.547-119.337-266.547-266.547 0-100.186 55.284-187.447 137-232.983-134.462-53.449-229.523-184.75-229.523-338.256 0-19.99 16.205-36.195 36.195-36.195s36.195 16.205 36.195 36.195h0.005c0.195 160.943 130.721 291.356 291.711 291.356 159.19 0 288.575-127.519 291.635-285.977a36.558 36.558 0 0 1-0.4-5.379c0-19.99 16.205-36.195 36.195-36.195s36.195 16.205 36.195 36.195c0 155.662-97.748 288.492-235.21 340.463z m-133.45 35.653c-107.762 0-195.12 87.36-195.12 195.123 0 107.762 87.358 195.12 195.12 195.12s195.119-87.358 195.119-195.12-87.357-195.123-195.119-195.123z"  horiz-adv-x="1024" />

    
    <glyph glyph-name="jiantou1" unicode="&#58965;" d="M299.262661-107.737678 760.056481 360.258254C767.804573 367.663662 772.318027 378.816383 772.318027 390.682882 772.318027 402.460157 767.804573 413.702102 760.056481 421.018286L300.616696 887.408227C286.474548 900.880715 265.787896 898.204063 254.429043 881.430365 243.07019 864.656671 245.326916 840.120684 259.469064 826.648196L687.013792 390.593659 258.039804-46.977646C243.897656-60.450135 241.640931-84.986124 252.999783-101.759818 259.544288-111.306549 269.022536-116.302968 278.651232-116.302968 285.872755-116.302968 293.169501-113.447872 299.262661-107.737678Z"  horiz-adv-x="1024" />

    
    <glyph glyph-name="jinyong" unicode="&#59080;" d="M512 832c-249.6 0-448-198.4-448-448s198.4-448 448-448 448 198.4 448 448-198.4 448-448 448zM512 0c-217.6 0-384 166.4-384 384s166.4 384 384 384 384-166.4 384-384-166.4-384-384-384zM736 416h-448c-19.2 0-32-12.8-32-32s12.8-32 32-32h448c19.2 0 32 12.8 32 32s-12.8 32-32 32z"  horiz-adv-x="1024" />

    
    <glyph glyph-name="jiantou2" unicode="&#59715;" d="M512.000512 110.666728a23.027459 23.027459 0 0 0-16.286942 6.749728L63.464939 549.975149c-8.988722 8.994861-8.983605 23.572882 0.011256 32.561603 8.994861 8.988722 23.572882 8.983605 32.561603-0.011256l415.962714-416.260496 415.959643 416.261519c8.986675 8.994861 23.564695 9.001001 32.561603 0.011256 8.994861-8.988722 8.999978-23.566742 0.01228-32.561603L528.287453 117.416456a23.032576 23.032576 0 0 0-16.286941-6.749728z"  horiz-adv-x="1024" />

    
    <glyph glyph-name="ds" unicode="&#58882;" d="M203.41713 700.680925S75.159721 496.091361 364.239618 352.885431c75.599383-37.450217 161.140022 0 190.8736 43.607369 18.480851 27.10124 10.715361 71.398165-10.005137 78.921277-88.146672 32.012683-55.190782-93.612389-105.269079-93.612389-75.599383 0-75.599383 93.612389-75.599384 93.612389s1.033394 149.26538 213.916419 113.241248c70.496294-11.931009 229.122349-192.162525 40.717622-340.12207-40.152073-31.533563-110.434172-50.168484-269.396551-9.986349-281.92505 71.266642-291.629563-128.674525-291.629563-128.674524s85.784895 192.408661 381.991457-13.762936c167.392998-116.510532 274.663105 0 274.663104 0s-165.335604-15.452066-159.387009 54.273879c0 0 0 71.03178 93.537233 47.981446 180.618569-44.511119 262.904954 103.916272 262.904954 103.916271s-124.696895-75.40022-149.009849-25.011904c0 0-48.045328 57.785541 68.561027 119.223662 256.249894 135.006415 64.207618 353.693358 64.207619 353.693358s44.993996-191.110341-59.348786-206.761571c-4.796829-0.719618-79.276389-30.314158-79.276389 112.912441C756.690906 945.679971 508.439486 886.116991 508.439486 886.116991s190.8736-55.515831 100.457219-192.389872c0 0-30.278459-61.109314-169.057703 30.39683 0 0-146.58607 108.318532-236.421872-23.441145zM95.724272 73.667875s156.100815 119.823031 322.052697-33.664235c162.763391-150.535516 395.50262-43.314261 395.50262-43.31426S578.601336-210.962789 432.973505-79.872C211.663618 119.349549 95.724272 73.667875 95.724272 73.667875z"  horiz-adv-x="1024" />

    
    <glyph glyph-name="weixin" unicode="&#58902;" d="M994.221553 383.15677c-62.319972-35.966984-27.254988-109.214951 33.963985-84.112962 53.486976 21.92799 30.009987 87.160961-33.963985 84.112962z m-244.25389 0c-64.266971-35.743984-26.599988-109.373951 33.968985-84.112962 52.071977 21.71399 26.835988 86.757961-33.968985 84.112962z m111.61295 179.54992c181.735918 3.135999 295.723867-79.176964 362.334837-192.492914 26.490988-45.06498 47.893978-125.025944 27.498988-192.492913-30.689986-101.514954-87.408961-130.235941-148.817933-195.720912l33.968984-109.995951-119.693946 66.31997c-5.793997 1.574999-106.019952-19.600991-126.175943-22.64499-92.803958-14.009994-206.169907 41.017982-255.571885 76.026966-162.797927 115.369948-177.10592 359.543838-12.939994 485.266782 44.95198 34.425985 99.873955 60.467973 163.372926 76.022966l76.023966 9.705996z m-250.723887 143.959935c-27.687988-10.075995-51.915977-11.570995-61.462973-38.821983-15.193993-43.355981 30.605986-79.839964 71.173968-72.789967 66.45497 11.544995 62.503972 107.517952-9.706995 111.61195z m-312.18586 0c-26.826988-9.824996-49.707978-11.637995-59.850973-37.201983-16.654993-41.990981 28.060987-82.063963 71.173968-74.409967 67.20997 11.930995 64.963971 107.110952-11.322995 111.61195zM421.605811 895.92654c220.381901 3.643998 454.449796-128.581942 473.942787-313.807859-70.631968 20.042991-157.583929-10.679995-203.810909-30.730986-123.753944-53.683976-191.505914-143.842935-216.754902-297.630866-7.023997-42.780981 8.967996-79.641964 12.939994-113.22895-45.01498-1.804999-91.557959-1.968999-131.021941 6.465997l-66.319971 14.559994-153.666931-77.643965 42.053982 134.257939c-75.229966 47.364979-138.299938 121.145946-166.609926 215.133904-43.55698 144.631935 36.231984 285.665872 111.61295 346.159844 54.287976 43.55998 114.612949 78.120965 190.875915 100.287955L421.605811 895.92554z"  horiz-adv-x="1259" />

    
    <glyph glyph-name="kafei-" unicode="&#58898;" d="M317.8 658c1-1 2.3-1.5 3.6-1.5s2.6 0.5 3.6 1.5l17.2 17.2 17.2-17.2c1-1 2.3-1.5 3.6-1.5s2.6 0.5 3.6 1.5c2 2 2 5.1 0 7.1l-17.2 17.2 17.2 17.2c2 2 2 5.1 0 7.1s-5.1 2-7.1 0L342 689.4l-17.2 17.2c-2 2-5.1 2-7.1 0s-2-5.1 0-7.1l17.2-17.2-17.2-17.2c-1.9-2-1.9-5.1 0.1-7.1zM811.9 621c-2 2-5.1 2-7.1 0l-17.2-17.2-17.1 17.2c-2 2-5.1 2-7.1 0s-2-5.1 0-7.1l17.2-17.2-17.2-17.2c-2-2-2-5.1 0-7.1 1-1 2.3-1.5 3.6-1.5s2.6 0.5 3.6 1.5l17.2 17.2 17.2-17.2c1-1 2.3-1.5 3.6-1.5 1.3 0 2.6 0.5 3.6 1.5 2 2 2 5.1 0 7.1L795 596.7l17.2 17.2c1.7 1.9 1.7 5.1-0.3 7.1zM172.5 400.2c-2 2-5.1 2-7.1 0L148.2 383 131 400.2c-2 2-5.1 2-7.1 0s-2-5.1 0-7.1l17.2-17.2-17.2-17.2c-2-2-2-5.1 0-7.1 1-1 2.3-1.5 3.6-1.5 1.3 0 2.6 0.5 3.6 1.5l17.2 17.2 17.2-17.2c1-1 2.3-1.5 3.6-1.5 1.3 0 2.6 0.5 3.6 1.5 2 2 2 5.1 0 7.1l-17.2 17.2 17.2 17.2c1.7 2 1.7 5.1-0.2 7.1zM868.1 171.5c-18.4 0-33.4-15-33.4-33.4s15-33.4 33.4-33.4 33.4 15 33.4 33.4-15 33.4-33.4 33.4z m0-56.7c-12.9 0-23.3 10.5-23.3 23.3 0 12.9 10.5 23.3 23.3 23.3 12.9 0 23.3-10.5 23.3-23.3s-10.4-23.3-23.3-23.3zM99.1 275.6c-18.4 0-33.4-15-33.4-33.4s15-33.4 33.4-33.4 33.4 15 33.4 33.4-15 33.4-33.4 33.4z m0-56.7c-12.9 0-23.3 10.5-23.3 23.3s10.5 23.3 23.3 23.3c12.9 0 23.3-10.5 23.3-23.3s-10.4-23.3-23.3-23.3zM140.5 630.3c18.4 0 33.4 15 33.4 33.4s-15 33.4-33.4 33.4-33.4-15-33.4-33.4 15-33.4 33.4-33.4z m0 56.8c12.9 0 23.3-10.5 23.3-23.3 0-12.9-10.5-23.3-23.3-23.3s-23.3 10.5-23.3 23.3 10.5 23.3 23.3 23.3zM902.3 478.1c-2.8 0-5-2.2-5-5v-35.4c0-2.8 2.2-5 5-5s5 2.2 5 5v35.4c0 2.7-2.2 5-5 5zM846.8 440.4l30.7-17.7c0.8-0.5 1.7-0.7 2.5-0.7 1.7 0 3.4 0.9 4.3 2.5 1.4 2.4 0.6 5.5-1.8 6.9l-30.7 17.7c-2.4 1.4-5.5 0.6-6.9-1.8-1.3-2.4-0.5-5.5 1.9-6.9zM847.4 379.8c0.9 0 1.7 0.2 2.5 0.7l30.7 17.7c2.4 1.4 3.2 4.5 1.8 6.9-1.4 2.4-4.5 3.2-6.9 1.8l-30.7-17.7c-2.4-1.4-3.2-4.5-1.8-6.9 1-1.6 2.7-2.5 4.4-2.5zM898.3 393.5c-2.8 0-5-2.2-5-5v-35.4c0-2.8 2.2-5 5-5s5 2.2 5 5v35.4c0.1 2.8-2.2 5-5 5zM953.8 385.7l-30.7 17.7c-2.4 1.4-5.5 0.6-6.9-1.8-1.4-2.4-0.6-5.5 1.8-6.9l30.7-17.7c0.8-0.5 1.7-0.7 2.5-0.7 1.7 0 3.4 0.9 4.3 2.5 1.5 2.5 0.7 5.5-1.7 6.9zM957.6 443.9c-1.4 2.4-4.5 3.2-6.9 1.8L920.1 428c-2.4-1.4-3.2-4.5-1.8-6.9 0.9-1.6 2.6-2.5 4.3-2.5 0.9 0 1.7 0.2 2.5 0.7l30.7 17.7c2.4 1.4 3.2 4.5 1.8 6.9zM568.8 730.1c2.8 0 5 2.2 5 5v35.4c0 2.8-2.2 5-5 5s-5-2.2-5-5v-35.4c-0.1-2.7 2.2-5 5-5zM513.3 737.9l30.7-17.7c0.8-0.5 1.7-0.7 2.5-0.7 1.7 0 3.4 0.9 4.3 2.5 1.4 2.4 0.6 5.5-1.8 6.9l-30.7 17.7c-2.4 1.4-5.5 0.6-6.9-1.8-1.3-2.4-0.5-5.5 1.9-6.9zM513.9 677.2c0.9 0 1.7 0.2 2.5 0.7l30.7 17.7c2.4 1.4 3.2 4.5 1.8 6.9-1.4 2.4-4.5 3.2-6.9 1.8l-30.7-17.7c-2.4-1.4-3.2-4.5-1.8-6.9 0.9-1.6 2.6-2.5 4.4-2.5zM564.8 645.5c2.8 0 5 2.2 5 5V686c0 2.8-2.2 5-5 5s-5-2.2-5-5v-35.4c0-2.8 2.3-5.1 5-5.1zM584.6 692.2l30.7-17.7c0.8-0.5 1.7-0.7 2.5-0.7 1.7 0 3.4 0.9 4.3 2.5 1.4 2.4 0.6 5.5-1.8 6.9l-30.7 17.7c-2.4 1.4-5.5 0.6-6.9-1.8-1.3-2.4-0.5-5.5 1.9-6.9zM589.1 716.1c0.9 0 1.7 0.2 2.5 0.7l30.7 17.7c2.4 1.4 3.2 4.5 1.8 6.9-1.4 2.4-4.5 3.2-6.9 1.8l-30.7-17.7c-2.4-1.4-3.2-4.5-1.8-6.9 1-1.6 2.7-2.5 4.4-2.5zM229.8 530.8c0.9-1.6 2.6-2.5 4.3-2.5 0.9 0 1.7 0.2 2.5 0.7l10.6 6.1v-12.3c0-2.8 2.2-5 5-5s5 2.2 5 5v12.3l10.6-6.1c0.8-0.5 1.7-0.7 2.5-0.7 1.7 0 3.4 0.9 4.3 2.5 1.4 2.4 0.6 5.5-1.8 6.9l-10.6 6.1 10.6 6.1c2.4 1.4 3.2 4.5 1.8 6.9-1.4 2.4-4.5 3.2-6.9 1.8l-10.6-6.1v12.3c0 2.8-2.2 5-5 5s-5-2.2-5-5v-12.3l-10.6 6.1c-2.4 1.4-5.5 0.6-6.9-1.8-1.4-2.4-0.6-5.5 1.8-6.9l10.6-6.1-10.6-6.1c-2.2-1.4-3-4.5-1.6-6.9zM121.6 140.6c-1.4 2.4-4.5 3.2-6.9 1.8l-10.6-6.1v12.3c0 2.8-2.2 5-5 5s-5-2.2-5-5v-12.3l-10.6 6.1c-2.4 1.4-5.5 0.6-6.9-1.8-1.4-2.4-0.6-5.5 1.8-6.9l10.6-6.1-10.6-6.1c-2.4-1.4-3.2-4.5-1.8-6.9 0.9-1.6 2.6-2.5 4.3-2.5 0.9 0 1.7 0.2 2.5 0.7l10.6 6.1v-12.3c0-2.8 2.2-5 5-5s5 2.2 5 5v12.3l10.6-6.1c0.8-0.5 1.7-0.7 2.5-0.7 1.7 0 3.4 0.9 4.3 2.5 1.4 2.4 0.6 5.5-1.8 6.9l-10.6 6.1 10.6 6.1c2.6 1.5 3.4 4.5 2 6.9zM668.6 482.9c0.9-1.6 2.6-2.5 4.3-2.5 0.9 0 1.7 0.2 2.5 0.7l10.6 6.1v-12.3c0-2.8 2.2-5 5-5s5 2.2 5 5v12.3l10.6-6.1c0.8-0.5 1.7-0.7 2.5-0.7 1.7 0 3.4 0.9 4.3 2.5 1.4 2.4 0.6 5.5-1.8 6.9l-10.6 6.1 10.6 6.1c2.4 1.4 3.2 4.5 1.8 6.9-1.4 2.4-4.5 3.2-6.9 1.8l-10.6-6.1v12.3c0 2.8-2.2 5-5 5s-5-2.2-5-5v-12.3l-10.6 6.1c-2.4 1.4-5.5 0.6-6.9-1.8-1.4-2.4-0.6-5.5 1.8-6.9l10.6-6.1-10.6-6.1c-2.2-1.4-3-4.5-1.6-6.9zM598.3 113.1c12.5 13.2 24 28.2 34.2 44.7 132 35.2 148.9 90.5 150 112.8 1.2 24.2-13.2 45.9-35.8 54.2-14.1 5.1-47 3-64.2 1.5 0.3 6.8 0.6 13.6 0.6 20.6 0 5.6-4.5 10-10 10H252.3c-5.6 0-10-4.5-10-10 0-96 34-181.4 86.6-235.7-84.2-7.4-174.3-23.1-174.3-56.2 0-61.7 308.5-62.4 321.6-62.4s321.6 0.7 321.6 62.4c-0.1 37.3-116.2 52.2-199.5 58.1z m141.4 192.8c11.9-4.3 23.5-16.6 22.6-34.3-0.6-13.2-11.2-56.7-116.3-89 18 36.3 30.1 78.2 34.8 123.3 21 2 50.1 3.2 58.9 0z m-77 30.8c-2.5-94.8-39.6-177.5-94.3-224.8l-0.1-0.1c-30.7-26.5-66.9-41.9-105.7-41.9-38.1 0-73.7 14.8-104 40.4l-0.1 0.1c-55.6 47-93.5 130.5-96 226.2h400.2zM476.1 12.5c-192.4 0-297 27.2-301.5 42.1 2.4 8.3 48.4 28.4 174.3 37.9 33.2-27.1 72.1-42.7 113.7-42.7 42.4 0 82 16.3 115.7 44.3C721 85.8 775 63.6 777.7 55c-4.5-15.2-109.1-42.5-301.6-42.5zM379.7 402.7c-3.6-4.2-3.2-10.5 1-14.2 1.9-1.7 4.3-2.5 6.6-2.5 2.8 0 5.6 1.2 7.6 3.4 30.1 34.4 31.1 57.1 4.3 93.7-15.5 21.2 9.3 53.2 9.5 53.6 3.4 4.3 2.7 10.6-1.6 14.1-4.3 3.4-10.7 2.7-14.1-1.6-1.4-1.8-34.6-44.3-10-77.9 21-28.7 20.4-41.6-3.3-68.6zM459.7 402.7c-3.6-4.2-3.2-10.5 1-14.2 1.9-1.7 4.3-2.5 6.6-2.5 2.8 0 5.6 1.2 7.6 3.4 30.1 34.4 31.1 57.1 4.3 93.7-15.5 21.2 9.3 53.2 9.5 53.6 3.4 4.3 2.7 10.6-1.6 14.1-4.3 3.4-10.7 2.7-14.1-1.6-1.4-1.8-34.6-44.3-10-77.9 21-28.7 20.4-41.6-3.3-68.6zM543 471.3c21-28.7 20.4-41.5-3.3-68.6-3.6-4.2-3.2-10.5 1-14.2 1.9-1.7 4.3-2.5 6.6-2.5 2.8 0 5.6 1.2 7.6 3.4 30.1 34.4 31.1 57.1 4.3 93.7-15.5 21.2 9.3 53.2 9.5 53.6 3.4 4.3 2.7 10.6-1.6 14.1-4.3 3.4-10.7 2.7-14.1-1.6-1.4-1.8-34.6-44.3-10-77.9z"  horiz-adv-x="1024" />

    
    <glyph glyph-name="gongnengershoujiaoyi" unicode="&#58920;" d="M848.9 437.9H175.3c-12.7 0-23 10.3-23 23v84.2c0 12.7 10.3 23 23 23h673.6c12.7 0 23-10.3 23-23V461c0-12.7-10.3-23.1-23-23.1z m-656.6 40H832v50.2H192.3v-50.2zM787.4 28H239.6c-13.2 0-23.9 10.7-23.9 23.9V454.4c0 13.2 10.7 23.9 23.9 23.9h547.8c13.2 0 23.9-10.7 23.9-23.9v-402.5c0-13.1-10.7-23.9-23.9-23.9z m-531.7 40h515.6V438.3H255.7V68zM628.6 251.8h-219c-12 0-21.8 9.8-21.8 21.8V350c0 12 9.8 21.8 21.8 21.8h219c12 0 21.8-9.8 21.8-21.8v-76.4c-0.1-12.1-9.8-21.8-21.8-21.8z m-200.8 40h182.5v39.9H427.8v-39.9zM300.2 533.2L264.8 552l80.6 151.9c8.6 16.1 23 28 40.5 33.4 17.6 5.4 36.1 3.6 52.3-4.9L698 594.5c12.1-6.4 21.9-16.3 28.4-28.4L691 547.4c-2.7 5-6.7 9.1-11.8 11.8L419.5 697c-6.7 3.6-14.4 4.3-21.8 2-7.3-2.3-13.3-7.2-16.9-13.9l-80.6-151.9zM722.3 553.9l-16 66c-3.7 15.3-19.2 24.8-34.6 21.1l-91.9-22.3-9.4 38.9 91.9 22.3c36.8 8.9 73.9-13.7 82.9-50.5l16-66-38.9-9.5zM482.642 669.455l35.332-18.756-64.38-121.277-35.332 18.756zM404.315 669.27l31.092-16.506-16.505-31.092-31.093 16.505zM372.309 609.13l31.088-16.506-16.505-31.089-31.088 16.506z"  horiz-adv-x="1024" />

    
    <glyph glyph-name="QQ" unicode="&#58929;" d="M512 896C229.228 896 0 666.772 0 384c0-282.745 229.228-512 512-512s512 229.255 512 512C1024 666.772 794.772 896 512 896z m226.856-637.063s-16.208-44.22-45.945-83.94c0 0 53.127-18.056 48.64-64.984 0 0 1.779-52.346-113.462-48.735 0 0-81.07 6.32-105.377 40.61h-21.424c-24.306-34.304-105.35-40.61-105.35-40.61-115.281-3.61-113.476 48.735-113.476 48.735-4.5 46.928 48.627 64.983 48.627 64.983-29.71 39.72-45.918 83.941-45.918 83.941-72.058-116.44-64.85 16.25-64.85 16.25 13.528 78.524 70.239 129.967 70.239 129.967-8.111 71.316 21.612 83.94 21.612 83.94C318.41 709.714 508.025 705.86 512 705.753c3.988 0.107 193.576 3.96 199.828-216.644 0 0 29.71-12.638 21.612-83.94 0 0 56.738-51.443 70.238-129.968 0-0.013 7.195-132.702-64.822-16.263z m0 0"  horiz-adv-x="1024" />

    
    <glyph glyph-name="weibo" unicode="&#58912;" d="M1257.425339 452.152709h-0.340766c-5.707825-39.188053-25.131468-42.340135-48.218343-42.340135-27.60202 0-50.007363 17.464241-50.007362 45.151452 0 24.02398 9.967396 48.388726 9.967396 48.388726 2.896508 10.137779 26.324148 72.923854-15.419647 166.804797-76.501894 128.639042-230.61317 130.513253-248.758943 123.186792a236.832144 236.832144 0 0 0-45.407026-10.819311 50.262937 50.262937 0 0 0-50.262937 50.262937c0 23.172066 15.504838 42.680901 36.63231 48.6443 0 0 0.425957 0.851914 1.19268 1.022297 1.533446 0.255574 3.066891 1.78902 4.77072 1.959403 21.297855 4.17438 97.88494 19.082878 172.257048 1.703828C1156.899465 855.108119 1339.549867 726.213503 1257.425339 452.152709zM893.657981 637.103279a34.417333 34.417333 0 0 0-34.417333 34.502524c0 19.253261 15.334455 34.758099 34.417333 34.758099 0 0 215.108332 39.784392 189.380524-191.680692a34.332142 34.332142 0 0 0-34.24695-32.628313 34.502525 34.502525 0 0 0-34.672908 34.502524s34.076567 154.707616-120.460666 120.545858z m17.464241-65.42701c58.27093-58.27093 9.62663-138.606438 9.626631-138.606438s-24.109171-26.750105 25.557425-36.461927c49.922171-9.967396 206.674382-82.635676 120.375475-266.478757-86.213716-183.417124-370.753054-272.782922-581.601815-256.170596C284.794912-110.195845 27.261254-43.661347 0.59634 199.134196c0 0-14.056584 109.982121 92.347498 252.336982 0 0 153.174171 214.086035 331.565001 275.168282 178.476022 60.741481 199.34792-42.084561 199.34792-102.911234-9.541439-51.626-27.261254-81.954145 39.699201-61.167439 0 0 175.494322 81.528188 247.651454 9.200674zM500.755159 439.459188c-209.230124-9.62663-378.420282-121.823729-378.420282-261.878421 0-139.713927 169.190157-244.840137 378.420282-235.128316 209.485698 9.62663 378.93143 140.821415 378.93143 280.620533 0 139.713927-169.530923 226.098025-378.93143 216.386204z m-171.490326-408.578044c-58.526505 31.776399-56.396719 94.3069-56.396719 94.3069S248.58856 322.661753 459.181746 347.367264c210.76357 24.535129 248.332985-177.027768 184.269039-259.919018-64.063947-82.806059-190.828778-123.271983-314.100761-56.481911z m73.179429 161.52293c-39.273244-4.089188-67.471604-38.336138-67.471604-71.134835 0-32.969079 31.691208-55.629996 70.964452-51.02966 39.188053 4.429954 71.049643 34.758099 71.049643 67.471604 0 32.969079-29.391039 58.952462-74.542491 54.692891z m138.606438 23.853597c-7.070888 11.586033-23.257257 14.99369-38.847287 3.322465a31.009676 31.009676 0 0 1-8.859908-40.125158c6.985696-11.926799 23.342449-13.375053 36.63231-3.407657 13.034287 10.22297 18.145772 28.113168 11.074885 40.125158z"  horiz-adv-x="1280" />

    
    <glyph glyph-name="wanle" unicode="&#58938;" d="M577.361702 896H446.638298C200.442553 896 0 695.557447 0 449.361702v-130.723404c0-246.195745 200.442553-446.638298 446.638298-446.638298h130.723404c246.195745 0 446.638298 200.442553 446.638298 446.638298V449.361702C1024 695.557447 823.557447 896 577.361702 896zM327.897872 528.885106C403.06383 671.591489 485.855319 685.753191 485.855319 685.753191s-27.234043-98.042553-39.217021-223.319148c11.982979-128.544681 39.217021-171.029787 39.217021-171.029788H236.391489c0 1.089362 0 99.131915 91.506383 237.480851z m381.276596-381.276595H354.042553c-67.540426 0-117.651064 38.12766-117.651064 104.578723H512V685.753191h39.217021v-433.565957h275.608511c0-66.451064-50.110638-104.578723-117.651064-104.578723zM590.434043 292.493617V555.029787l249.463829-262.53617H590.434043z"  horiz-adv-x="1024" />

    
    <glyph glyph-name="wanju" unicode="&#58893;" d="M524.8-32c166.4 6.4 326.4 115.2 384 262.4 12.8 38.4 12.8 70.4 12.8 102.4 0 64-12.8 121.6-38.4 172.8C928 531.2 960 582.4 960 640c0 89.6-70.4 166.4-166.4 166.4-64 0-115.2-32-140.8-83.2 0 6.4-140.8 57.6-281.6 0C345.6 768 288 800 230.4 800 134.4 800 64 729.6 64 640c0-57.6 32-108.8 76.8-134.4-76.8-166.4-19.2-307.2 0-332.8 51.2-96 185.6-211.2 384-204.8z m236.8 428.8c12.8 0 25.6-12.8 25.6-32s-12.8-32-25.6-32-25.6 12.8-25.6 32c-6.4 19.2 6.4 32 25.6 32z m-249.6-64c134.4 0 249.6-70.4 249.6-160s-115.2-160-249.6-160c-134.4 0-249.6 70.4-249.6 160s115.2 160 249.6 160z m-249.6 64c12.8 0 25.6-12.8 25.6-32s-12.8-32-25.6-32-25.6 12.8-25.6 32 12.8 32 25.6 32zM467.2 128c12.8-19.2 32-32 44.8-32 19.2 0 32 12.8 44.8 32l25.6 51.2c32 38.4 6.4 76.8-38.4 76.8h-64c-51.2 0-70.4-32-44.8-76.8l32-51.2z"  horiz-adv-x="1024" />

    
    <glyph glyph-name="sousuo" unicode="&#59744;" d="M959.620225 15.369292l-78.289064-79.004355-214.536144 215.776391c-63.155389-48.677653-141.809773-77.905324-227.389894-77.905324-207.342302 0-375.432625 169.634492-375.432624 378.875027S232.061798 831.995267 439.4041 831.995267c207.333092 0 375.419322-169.623235 375.419322-378.87298 0-82.510202-26.41358-158.650323-70.803579-220.847897l215.600382-216.905098zM439.4041 740.128977c-157.091828 0-284.436144-128.490419-284.436144-287.007713 0-158.52241 127.338177-287.025109 284.436144-287.025109 157.058059 0 284.396235 128.502699 284.396235 287.025109 0 158.517293-127.337153 287.007713-284.396235 287.007713z"  horiz-adv-x="1024" />

    
    <glyph glyph-name="ic_local_drink_px" unicode="&#59154;" d="M128 810.666667l85.973333-778.026667A85.205333 85.205333 0 0 1 298.666667-42.666667h426.666666c43.733333 0 79.786667 32.853333 84.693334 75.306667L896 810.666667H128z m384-725.333334c-70.613333 0-128 57.386667-128 128 0 85.333333 128 230.4 128 230.4S640 298.666667 640 213.333333c0-70.613333-57.386667-128-128-128z m269.866667 469.333334h-539.733334l-18.773333 170.666666h577.493333l-18.986666-170.666666z"  horiz-adv-x="1024" />

    
    <glyph glyph-name="youxi1" unicode="&#58915;" d="M417.9 638h-94.8v-54.9h-54.8v-94.8H323v-54.9h94.8v54.9h55v94.8h-54.9zM857.3 477.7c-56.3 0-102.2-45.9-102.2-102.2S801 273.3 857.3 273.3c56.3 0 102.2 45.9 102.2 102.2s-45.9 102.2-102.2 102.2zM838.2 138.1L610.5 371.3 850 625.7c12.3 12.7 16.7 30.2 12.4 49.4-0.1 0.5-1.4 6.4-4.3 13.2l2.5 2.5-12.1 14.1c-35.3 40.7-86.9 78.4-145.4 106-64.3 30.4-131.9 46.5-195.5 46.5-62 0-122-12.1-178.6-35.9-54.7-23.1-103.7-56.1-145.9-98.3-42.2-42.2-75.3-91.2-98.4-145.9-24-56.5-36.1-116.7-36.1-178.6 0-62 12.2-122 36.1-178.6 23.2-54.7 56.2-103.7 98.4-145.9 42.2-42.1 91.2-75.2 145.9-98.3 56.6-24 116.7-36.1 178.6-36.1 117.4 0 229.2 44.6 314.8 125.6l0.6 0.6 0.6 0.6c0.7 0.8 1.5 1.7 2.5 2.7 5.2 5.7 12.5 13.5 17 23.9 6.4 14.8 5 29.8-3.9 43.5l-1 1.4zM507.6 34.2c-200.8 0-364.1 163.3-364.1 364.1s163.3 364.1 364.1 364.1c92.9 0 180.3-35 248.1-98.8L480 368.9l251-257.5c-63.9-49.9-142.4-77.2-223.4-77.2z"  horiz-adv-x="1024" />

    
    <glyph glyph-name="he_drink" unicode="&#58923;" d="M837.39556 618.41776c-25.894039 100.043038-68.105507 203.944613-131.469197 276.42003L319.003405 896C255.081854 823.478095 212.544968 719.018659 186.557952 618.41776c-53.461661-206.594452 41.002769-354.61352 281.208335-370.466064v-329.695737H349.0814v-46.255959h328.580016v46.255959H558.465156v329.835202c238.531983 16.642847 332.299087 163.964589 278.930404 370.326599z"  horiz-adv-x="1024" />

    
    <glyph glyph-name="jiantouarrow476-copy" unicode="&#58886;" d="M104.009 601.13c0 4.299 1.996 8.327 5.387 10.916l337.985 259.863c2.489 1.908 5.414 2.841 8.4 2.841 2.928 0 5.825-0.906 8.314-2.759 4.949-3.732 6.788-10.308 4.496-16.106l-67.971-172.026v-7.297c3.125 0.339 6.236 0.55 9.444 0.551v-0.637h142.289c202.737 0 367.635-164.913 367.635-367.635v-47.975c0-202.722-164.898-367.635-367.635-367.635h-367.338v169.678h367.338c109.173 0 197.956 88.798 197.956 197.956v47.975c0 109.159-88.783 197.956-197.956 197.956h-147.138l63.375-160.443c2.291-5.755 0.438-12.345-4.496-16.077s-11.792-3.706-16.714 0.084l-337.969 259.834c-3.409 2.644-5.403 6.645-5.403 10.93z"  horiz-adv-x="1024" />

    
    <glyph glyph-name="jingxuan1" unicode="&#58887;" d="M0 896v-1024L1024 896H0zM99.84 401.92c-13.824 11.776-38.912 26.624-59.392 35.84l8.704 13.824c20.992-8.704 45.568-23.04 59.904-34.816l-9.216-14.848z m59.392 3.072c13.312-1.536 57.856-9.728 68.608-12.288l1.536-23.04c-10.24 4.608-32.256 10.752-50.176 15.872l85.504-85.504-14.848-14.848L168.96 365.568c14.336-27.648 25.6-57.344 30.208-78.848-6.656 3.072-17.92 6.144-24.576 7.68-4.608 26.624-20.48 67.072-37.376 97.792l-28.16-28.16-15.36 15.36 30.72 30.72-71.68 71.68 14.848 14.848 72.192-71.68 24.064 24.064 14.848-14.848-24.064-24.064 4.608-5.12z m-28.16 33.792c-7.68 17.408-23.04 45.056-34.304 62.464l16.384 10.24c11.264-20.992 24.576-48.128 31.232-65.536l-13.312-7.168z m158.72 141.824L302.08 568.32 180.736 446.976l-12.288 12.288L220.16 510.976l-14.848 14.848-39.936-39.936-11.776 11.776 39.936 39.936-13.312 13.312-45.568-45.568-12.288 12.288 45.568 45.568-17.408 17.408 15.36 15.36 17.408-17.408 48.64 48.64 12.288-12.288-48.64-48.64 13.312-13.312 44.032 44.032 11.776-11.776-44.032-44.032 14.848-14.848 54.272 54.272z m97.792-126.464c7.68-7.68 10.24-13.312 6.656-21.504-3.072-7.68-12.288-16.896-25.6-30.208-4.608 3.584-12.288 7.168-17.92 8.704 10.24 9.728 18.944 18.432 21.504 20.992 3.072 3.072 2.56 4.096 0 6.656L353.28 457.728 290.816 394.752l35.328-35.328-15.36-15.36-103.424 103.424 93.184 93.184 87.04-86.528z m-152.576-3.584l15.872-15.872 62.976 62.976-15.872 15.872L235.008 450.56z m107.008 18.944l-15.872 15.872-62.976-62.976 15.872-15.872 62.976 62.976zM329.216 655.36c-16.896 4.096-46.592 5.12-70.144 2.56l3.584 20.992c23.04 3.072 52.224 3.072 69.632-0.512l-3.072-23.04z m114.688-99.84c6.656 5.12 16.896 4.608 33.28 9.216 21.504 5.632 40.448 22.016 64 45.056 24.576 24.576 55.808 58.88 75.264 82.944 2.56-6.144 7.68-16.896 11.776-21.504-15.872-17.92-50.688-55.808-72.192-76.8-25.088-25.088-45.056-40.448-68.096-46.592-13.824-3.072-26.112-3.584-31.232-8.704-8.192-8.192-8.704-30.72-7.68-56.32l-24.064 3.072c0.512 18.944 2.56 36.352 7.168 50.176L366.592 601.6l-26.624-26.624-15.36 15.36 42.496 42.496 76.8-77.312z m0.512 139.776c30.208-38.4 44.544-73.728 22.016-124.416-5.632 2.048-15.872 3.584-22.528 3.072 20.992 44.032 9.216 73.728-15.872 105.472L389.12 640.512l-14.336 14.336 60.928 60.928-31.232 31.232-31.744-31.744c4.096-12.8 7.168-24.576 7.68-36.352-5.12-0.512-16.384-3.072-22.016-5.12-1.536 24.576-11.776 52.736-25.6 77.312l18.944 11.776c4.608-8.704 9.216-17.92 12.8-27.136l25.6 25.6-29.184 29.184 15.872 15.872 29.184-29.184 50.176 50.176 14.336-14.336-50.176-50.176 31.744-31.744 58.88 58.88 14.336-14.336-43.008-43.008 50.176-50.176c5.12-5.12 7.168-5.12 12.288 0l17.408 17.408c5.12 5.12 3.072 9.216-18.944 32.256 6.144 1.024 15.36 4.608 20.992 8.192 25.6-29.184 28.16-40.448 14.848-53.76L558.08 665.6c-16.384-16.384-25.088-14.848-40.96 1.024L466.944 716.8l-22.528-21.504z"  horiz-adv-x="1024" />

    
    <glyph glyph-name="accessory" unicode="&#59101;" d="M842.72 636.096a159.04 159.04 0 0 1-113.056 46.912h-0.16a158.592 158.592 0 0 1-112.768-46.656l-0.096-0.064-294.528-294.528a95.968 95.968 0 0 1 68.128-163.712c24.512 0 49.024 9.28 67.648 27.968l294.496 294.496a31.968 31.968 0 1 1-45.248 45.248l-294.496-294.496a31.872 31.872 0 0 0-45.088 0.16 31.552 31.552 0 0 0-0.192 45.088l294.496 294.496a95.04 95.04 0 0 0 67.648 28h0.096a95.52 95.52 0 0 0 67.872-28.16c18.112-18.112 28.096-42.24 28.128-67.84a95.136 95.136 0 0 0-27.968-67.776l-79.52-79.52-0.512-0.48-220.416-220.48a160.32 160.32 0 0 0-226.432-0.096A158.912 158.912 0 0 0 224 267.776c0 42.816 16.672 83.04 46.912 113.28l300.288 300.32a31.968 31.968 0 1 1-45.248 45.248l-300.288-300.288A222.848 222.848 0 0 1 160 267.776c0-59.872 23.264-116.16 65.504-158.4a223.168 223.168 0 0 1 158.336-65.44 223.68 223.68 0 0 1 158.592 65.6l311.456 311.424a31.68 31.68 0 0 1 7.104 11.072c18.496 26.56 28.64 57.92 28.608 91.04a159.104 159.104 0 0 1-46.88 113.024"  horiz-adv-x="1024" />

    
    <glyph glyph-name="addition" unicode="&#59104;" d="M512 64c-176.448 0-320 143.552-320 320S335.552 704 512 704s320-143.552 320-320-143.552-320-320-320m0 704C300.256 768 128 595.744 128 384s172.256-384 384-384 384 172.256 384 384S723.744 768 512 768M683.936 425.056H544v139.968a32 32 0 1 1-64 0v-139.968h-139.936a32 32 0 0 1 0-64H480v-139.968a32 32 0 0 1 64 0v139.968h139.968a32 32 0 0 1 0 64"  horiz-adv-x="1024" />

    
    <glyph glyph-name="camera" unicode="&#59111;" d="M224 116.288l-0.128 439.712h146.976l45.856 106.048c1.856 4.256 10.496 9.952 15.136 9.952h192.288c4.768 0 13.248-5.6 15.136-9.92l45.856-106.08 146.88-0.32 0.032-439.68L224 116.32zM832.032 620h-104.832l-29.184 67.52C686.016 715.104 654.272 736 624.128 736h-192.288c-30.144 0-61.888-20.864-73.856-48.544l-29.184-67.456H223.968A64.224 64.224 0 0 1 160 555.68v-439.36c0-35.488 28.672-64.32 63.968-64.32h608.064A64.192 64.192 0 0 1 896 116.32v439.36c0 35.456-28.704 64.32-63.968 64.32zM528 256c-52.928 0-96 43.072-96 96s43.072 96 96 96 96-43.072 96-96-43.072-96-96-96m0 256c-88.224 0-160-71.776-160-160s71.776-160 160-160 160 71.776 160 160-71.776 160-160 160"  horiz-adv-x="1024" />

    
    <glyph glyph-name="clock" unicode="&#59112;" d="M512 82.752c-158.784 0-288 129.216-288 288s129.216 288 288 288 288-129.216 288-288-129.216-288-288-288m0 640c-194.08 0-352-157.92-352-352 0-101.856 43.744-193.472 113.152-257.824a31.04 31.04 0 0 1-13.248-7.552l-58.528-58.56a31.968 31.968 0 1 1 45.248-45.216l58.528 58.528a31.584 31.584 0 0 1 8.832 19.84A349.664 349.664 0 0 1 512 18.752c71.328 0 137.664 21.44 193.152 58.048a31.04 31.04 0 0 1 8.224-16.672l58.528-58.56a31.904 31.904 0 0 1 45.248 0 32 32 0 0 1 0 45.28l-58.528 58.528a31.36 31.36 0 0 1-9.28 6.176C819.616 175.936 864 268.16 864 370.752c0 194.08-157.92 352-352 352M544 376.896v185.856a32 32 0 0 1-64 0v-199.104c0-8.48 3.36-16.64 9.376-22.624l107.296-107.296a31.904 31.904 0 0 1 45.248 0 32 32 0 0 1 0 45.248L544 376.896zM182.624 609.6l90.528 90.56a32 32 0 0 1-45.248 45.216L137.376 654.848A31.968 31.968 0 1 1 182.624 609.6M883.872 668.128l-90.496 90.496a31.968 31.968 0 1 1-45.248-45.248l90.496-90.496a31.904 31.904 0 0 1 45.248 0 31.968 31.968 0 0 1 0 45.248"  horiz-adv-x="1024" />

    
    <glyph glyph-name="editor" unicode="&#59125;" d="M489.376 361.376a31.904 31.904 0 0 1 45.248 0l304 304a31.968 31.968 0 1 1-45.248 45.248l-304-304a31.968 31.968 0 0 1 0-45.248M832 416a32 32 0 0 1-32-32l0.256-288L224 95.744 223.744 672H512a32 32 0 0 1 0 64H223.744A63.84 63.84 0 0 1 160 672.256v-576.512C160 60.608 188.608 32 223.744 32h576.512A63.84 63.84 0 0 1 864 95.744V384a32 32 0 0 1-32 32"  horiz-adv-x="1024" />

    
    <glyph glyph-name="eit" unicode="&#59126;" d="M597.696 469.056c-0.032-1.28-0.896-8.128-9.344-41.952l-22.304-84.384c-7.136-24.96-22.624-47.68-46.144-67.52-24.992-21.44-50.336-32.32-75.36-32.32-21.952 0-38.848 7.584-51.872 23.456-12.32 14.016-18.592 34.432-18.592 60.672 0 61.12 17.44 112.704 51.776 153.184l0.16 0.192c31.776 39.104 67.712 58.08 109.952 58.08 19.616 0 34.4-7.616 45.536-23.776 10.88-14.304 16.192-29.28 16.192-45.632m277.696-248.416a11.2 11.2 0 0 1-9.76 5.728h-53.504a11.2 11.2 0 0 1-9.12-4.704c-27.36-38.56-64.32-70.112-109.664-93.76-52.608-26.272-114.72-39.616-184.64-39.616-91.264 0-165.888 26.464-221.76 78.56-56.384 53.952-84.992 129.76-84.992 225.28 0 89.184 29.632 163.712 88.192 221.632 57.824 58.464 131.68 88.064 219.52 88.064 82.208 0 149.312-24.448 199.264-72.544C755.776 582.4 779.52 523.584 779.52 454.4c0-58.72-17.856-111.04-52.896-155.328-30.08-36.64-59.52-55.2-87.616-55.2-17.472 0-18.944 7.136-18.944 15.04 0 14.304 3.424 31.776 10.336 52.576L700.448 576a11.2 11.2 0 0 1-10.816 14.048h-48.64a11.2 11.2 0 0 1-10.784-8.16l-7.744-27.296c-19.584 35.808-50.88 53.92-93.312 53.92-60.896 0-114.496-27.2-159.136-80.64-47.04-53.696-70.848-120.96-70.848-199.904 0-43.52 13.088-80.064 38.72-108.512 25.504-28.992 60.384-43.712 103.776-43.712 45.504 0 86.176 18.464 121.152 54.912 11.648-43.072 44.128-52.928 71.36-52.928 51.296 0 99.712 27.52 144.064 82.144 44.768 58.144 67.456 123.584 67.456 194.528 0 88.864-29.216 163.168-86.88 220.8C697.92 736.832 615.04 768 512.64 768c-110.88 0-203.84-37.12-276.256-110.176C164.48 587.2 128 498.464 128 394.08c0-110.88 35.52-201.6 105.6-269.696 69.92-66.56 162.464-100.32 275.136-100.32 79.872 0 153.216 16.768 218.016 49.824 63.2 31.936 113.12 77.504 148.416 135.456a11.168 11.168 0 0 1 0.224 11.296"  horiz-adv-x="1024" />

    
    <glyph glyph-name="empty_fill" unicode="&#59127;" d="M821.344 698.752l-126.752-17.824-11.904 84.512a36.48 36.48 0 0 1-14.464 24.192c-16.416 12.384-41.376 11.072-54.688 9.152l-253.792-35.648c-46.624-6.56-60.16-30.688-57.312-51.072l11.008-78.24 0.896-6.336-76.128-10.688-50.656-7.136a32 32 0 1 1 8.928-63.36l23.552 3.328 18.176 2.528 4.224 0.608 50.752 7.136 63.936 8.992 73.088 10.272 192 26.976 192 27.008 16.032 2.24c17.504 2.432 29.696 18.624 27.232 36.128s-18.528 29.76-36.128 27.232zM398.208 441.792a32 32 0 0 0 64 0v-210.496a32 32 0 0 0-64 0v210.496z m192 0a32 32 0 0 0 64 0v-210.496a32 32 0 0 0-64 0v210.496z m-352 40.736v-392.704c0-20.608 9.984-38.816 25.184-50.56 10.816-8.32 24.192-13.44 38.848-13.44h447.936a63.36 63.36 0 0 1 38.816 13.44c15.232 11.712 25.216 29.888 25.216 50.56V501.824H237.344l0.864-19.328z"  horiz-adv-x="1024" />

    
    <glyph glyph-name="enterinto_fill" unicode="&#59129;" d="M629.856 345.024l-160-149.76a31.904 31.904 0 0 0-45.216 1.504 31.936 31.936 0 0 0 1.504 45.216l134.496 125.888-134.016 120.32a32 32 0 1 0 42.752 47.616l160-143.616a31.904 31.904 0 0 0 0.48-47.168M512 768C300.256 768 128 595.744 128 384c0-211.712 172.256-384 384-384s384 172.288 384 384c0 211.744-172.256 384-384 384"  horiz-adv-x="1024" />

    
    <glyph glyph-name="feedback" unicode="&#59130;" d="M704 128.608A318.016 318.016 0 0 0 512 64a318.016 318.016 0 0 0-192 64.608C242.464 187.072 192 279.616 192 384c0 176.448 143.552 320 320 320s320-143.552 320-320c0-104.384-50.464-196.928-128-255.392M512 768C300.256 768 128 595.744 128 384c0-141.76 77.408-265.504 192-332.032A381.312 381.312 0 0 1 511.936 0h0.128A381.312 381.312 0 0 1 704 51.968c114.592 66.528 192 190.272 192 332.032 0 211.744-172.256 384-384 384M639.936 492.16C639.936 556.096 582.528 608 512 608c-70.592 0-128-51.936-128-115.84v-15.52a32 32 0 1 1 64 0v15.552c0 28.576 28.736 51.808 64 51.808 35.296 0 64-23.232 64-51.84v-49.152c0.064-1.536-0.544-31.616-39.808-59.008a169.44 169.44 0 0 0-32.16-17.6 31.584 31.584 0 0 1-24-30.4v-37.184a32 32 0 0 1 64 0v15.488c41.952 20.672 65.696 46.464 79.04 69.696 18.56 32.512 16.992 59.84 16.896 60.64V492.16zM512 224a32 32 0 1 1 0-64 32 32 0 0 1 0 64"  horiz-adv-x="1024" />

    
    <glyph glyph-name="flag_fill" unicode="&#59131;" d="M788.352 352.64l-111.168 153.312 111.168 153.376c12.16 16.8 14.528 35.584 6.4 51.552C786.624 726.816 769.984 736 749.12 736H288.064A63.968 63.968 0 0 1 224 672.224V32a32 32 0 0 1 64 0v243.968h461.12c20.992 0 37.696 9.184 45.824 25.088 8.064 15.84 5.696 34.656-6.592 51.584"  horiz-adv-x="1024" />

    
    <glyph glyph-name="fullscreen" unicode="&#59134;" d="M409.376 342.624L224 157.248V288a32 32 0 0 1-64 0v-192.544c0-3.488 0.48-6.848 1.024-10.176a31.456 31.456 0 0 1 8.352-27.904c2.336-2.336 5.152-3.808 7.904-5.248 11.648-12.48 28.096-20.384 46.464-20.384h192.512a32 32 0 1 1 0 64l-163.488-0.224 201.856 201.856a31.968 31.968 0 1 1-45.248 45.248M800.512 736H608a32 32 0 0 1 0-64l146.944 0.192-201.568-201.568a31.968 31.968 0 1 1 45.248-45.248l201.632 201.632v-147.264a32 32 0 1 1 64 0V672.256A63.84 63.84 0 0 1 800.512 736"  horiz-adv-x="1024" />

    
    <glyph glyph-name="group" unicode="&#59135;" d="M864 51.232a2.464 2.464 0 0 0-1.504-0.704L288 51.904V169.92c0 5.824 6.016 14.944 12.096 17.44C301.664 188 456.992 256 576 256c118.752 0 274.336-68 276.864-69.088 5.216-2.08 11.136-11.168 11.136-17.024v-118.656zM480.48 455.2v104.736A112.064 112.064 0 0 0 592.256 672 112 112 0 0 0 704 559.936v-104.736a112 112 0 0 0-111.744-112.064 112 112 0 0 0-111.776 112.064z m397.248-209.28c-4.992 2.176-92.64 40.384-191.008 61.056A176 176 0 0 1 768 455.2v104.736C768 657.024 689.152 736 592.256 736c-96.928 0-175.776-78.976-175.776-176.064v-104.736c0-59.136 29.344-111.456 74.112-143.36-108.16-18.72-210.752-63.488-215.552-65.6C245.952 234.24 224 201.44 224 169.856v-126.4h0.544a65.536 65.536 0 0 1 64.96-56.96h572.992c28.672 0 54.304 18.752 63.808 46.72l1.696 4.96V169.92c0 31.808-22.016 64.672-50.272 76zM360.384 322.56c1.024 0 1.952-0.288 2.976-0.288a32 32 0 1 1 0 64A68.736 68.736 0 0 0 294.72 455.04v84.256C294.72 577.152 325.504 608 363.36 608a32 32 0 0 1 0 64 132.832 132.832 0 0 1-132.64-132.736v-84.256c0-32.736 12.352-62.368 32.064-85.536-62.72-19.296-117.536-49.696-127.584-55.456C112.352 303.2 96 277.312 96 251.552v-91.904a32 32 0 1 1 64 0v91.744a11.424 11.424 0 0 0 2.336 4.672 28.992 28.992 0 0 1 3.584 1.824c30.432 17.728 123.84 63.712 189.76 63.712 1.632 0 3.104 0.704 4.704 0.96"  horiz-adv-x="1024" />

    
    <glyph glyph-name="homepage" unicode="&#59138;" d="M768 105.44l-128 0.032v118.944a128.224 128.224 0 0 1-128 128.192c-70.592 0-128-57.504-128-128.192v-118.88l-128 0.032V531.008l255.68 167.52L768 530.624v-425.184z m-192 0.032l-128 0.032v118.912c0 35.392 28.704 64.192 64 64.192s64-28.8 64-64.192v-118.944z m304.896 427.68L800 586.144V688.832a32 32 0 1 1-64 0v-60.768l-206.464 135.296A31.296 31.296 0 0 1 511.424 768a31.168 31.168 0 0 1-17.6-4.64l-351.36-230.208a32 32 0 0 1 35.072-53.536L192 489.088v-393.056c0-30.08 27.2-54.592 60.576-54.592h518.848c33.408 0 60.576 24.512 60.576 54.592v392.64l13.856-9.056a31.968 31.968 0 0 1 35.04 53.536z"  horiz-adv-x="1024" />

    
    <glyph glyph-name="interactive_fill" unicode="&#59140;" d="M688 480a48 48 0 0 0-0.064 96h0.128a48 48 0 0 0-0.064-96m-160 0a48 48 0 0 0-0.064 96h0.128a48 48 0 0 0-0.064-96m362.848 256h-0.032c-8.544 18.88-26.848 32-48.16 32H373.344c-21.312 0-39.648-13.12-48.16-32a56.512 56.512 0 0 1-5.184-23.264V576H160h53.344C183.936 576 160 551.168 160 520.64v-377.152c0-30.56 24-55.36 53.44-55.36H274.528c1.376-0.064 3.488-0.96 5.408-2.144l0.256-45.856c0-2.784 0.64-5.44 1.376-8.128a31.552 31.552 0 0 1 5.248-11.2c10.176-13.216 24.96-20.8 40.672-20.8h0.064c14.784 0 28.736 6.72 38.816 18.464l14.24 13.536 44.864 42.688c1.984 1.856 4.768 5.824 6.208 8.128a15.84 15.84 0 0 0 9.056 5.28h241.952c15.296 0 29.088 6.752 38.848 17.504l-0.352 0.352h0.544l-28.96 27.328-19.584 18.816h-0.352l-79.84 75.392H384c-115.04 0.992-118.016 94.976-118.016 94.976V540.8c0.128 1.088 0.672 2.08 0.672 3.232 0 1.152-0.544 2.112-0.672 3.232v0.256h-0.032A31.68 31.68 0 0 1 234.656 576H320v-240.608c0-5.376 0.992-10.464 2.4-15.36 6.496-23.008 26.752-39.936 50.912-39.936h241.952a15.84 15.84 0 0 0 9.024-5.216 31.776 31.776 0 0 1 6.24-8.192l59.136-56.224c10.048-11.744 24.064-18.464 38.816-18.464 2.56 0 5.024 0.512 7.52 0.896a51.84 51.84 0 0 1 33.184 19.904c4.256 5.536 6.592 12.32 6.656 19.328l0.256 45.856a13.216 13.216 0 0 0 5.344 2.112h61.12c24.256 0 44.544 16.96 51.072 39.904a56.32 56.32 0 0 1 2.368 15.488V712.64c0 8.384-1.92 16.256-5.152 23.392"  horiz-adv-x="1024" />

    
    <glyph glyph-name="manage_fill" unicode="&#59147;" d="M416.096 728.224H223.904A64 64 0 0 1 160 664.32v-192.192a64 64 0 0 1 63.904-63.904h192.192A64 64 0 0 1 480 472.128V664.32a64 64 0 0 1-63.904 63.904M885.088 613.44l-135.904 135.872a64 64 0 0 1-90.368 0L640 730.496 522.912 613.44a63.456 63.456 0 0 1-18.656-45.056 63.456 63.456 0 0 1 18.656-45.312l18.816-18.816L640 405.92l18.816-18.816a63.904 63.904 0 0 1 90.368 0.032l117.088 117.12 18.816 18.784a63.936 63.936 0 0 1 0 90.368M416.096 344.224H223.904A64 64 0 0 1 160 280.32v-192.192a64 64 0 0 1 63.904-63.904h192.192A64 64 0 0 1 480 88.128V280.32a64 64 0 0 1-63.904 63.904M800.096 344.224h-192.192A64 64 0 0 1 544 280.32v-192.192a64 64 0 0 1 63.904-63.904h192.192A64 64 0 0 1 864 88.128V280.32a64 64 0 0 1-63.904 63.904"  horiz-adv-x="1024" />

    
    <glyph glyph-name="picture" unicode="&#59158;" d="M392.32 95.808l242.912 242.944 164.992-164.992 0.032-77.76-407.968-0.192zM224 672l576 0.256 0.192-407.968-142.336 142.336a31.968 31.968 0 0 1-45.248 0L301.76 95.776H224V672z m576.256 64H223.712a63.808 63.808 0 0 1-63.68-63.744v-576.512C160 60.576 188.544 32 223.68 32h576.544A63.808 63.808 0 0 1 864 95.744V672.256A63.84 63.84 0 0 1 800.256 736zM416 512a31.68 31.68 0 0 0 32-32 31.68 31.68 0 0 0-32-32 31.68 31.68 0 0 0-32 32c0 17.952 14.048 32 32 32m0-128c52.928 0 96 43.072 96 96s-43.072 96-96 96-96-43.072-96-96 43.072-96 96-96"  horiz-adv-x="1024" />

    
    <glyph glyph-name="praise_fill" unicode="&#59162;" d="M866.272 513.664c-15.584 19.296-39.872 30.336-66.592 30.336h-164.992c23.168 67.232 5.376 145.024 4.352 149.312a30.944 30.944 0 0 1-4.928 10.656A95.808 95.808 0 0 1 544 768a95.84 95.84 0 0 1-95.456-90.72H448V656a111.328 111.328 0 0 0-37.984-83.392c-16-14.208-35.904-23.776-58.016-26.976V32h384.16c32.352 0 63.04 24.96 69.888 56.8l75.904 354.208c5.504 25.76-0.192 51.488-15.68 70.656M192.192 544C156.8 544 128 515.2 128 479.776v-383.552C128 60.832 156.64 32 191.84 32H288V544H192.192z"  horiz-adv-x="1024" />

    
    <glyph glyph-name="qrcode" unicode="&#59164;" d="M224 479.904V672l192 0.096 0.096-192.096L224 479.904zM416.096 736H223.904A64 64 0 0 1 160 672.096v-192.192A64 64 0 0 1 223.904 416h192.192A64 64 0 0 1 480 479.904V672.096A64 64 0 0 1 416.096 736zM224 95.904V288l192 0.096 0.096-192.096L224 95.904zM416.096 352H223.904A64 64 0 0 1 160 288.096v-192.192A64 64 0 0 1 223.904 32h192.192A64 64 0 0 1 480 95.904v192.192A64 64 0 0 1 416.096 352zM608 479.904V672l192 0.096 0.096-192.096-192.096-0.096zM800.096 736h-192.192A64 64 0 0 1 544 672.096v-192.192A64 64 0 0 1 607.904 416h192.192A64 64 0 0 1 864 479.904V672.096A64 64 0 0 1 800.096 736zM704 288a32 32 0 0 1-32-32v-192a32 32 0 0 1 64 0v192a32 32 0 0 1-32 32M576 288a32 32 0 0 1-32-32v-192a32 32 0 0 1 64 0v192a32 32 0 0 1-32 32M832 352a32 32 0 0 1-32-32v-256a32 32 0 0 1 64 0v256a32 32 0 0 1-32 32"  horiz-adv-x="1024" />

    
    <glyph glyph-name="redpacket_fill" unicode="&#59165;" d="M607.84 415.872a22.368 22.368 0 0 0 0-31.68l-64-64-0.224-0.16H608a22.4 22.4 0 0 0 0-44.8h-73.6v-51.2H608a22.4 22.4 0 0 0 0-44.8h-73.6v-19.2a22.4 22.4 0 1 0-44.8 0v19.2H416a22.4 22.4 0 1 0 0 44.8h73.6v51.2H416a22.4 22.4 0 1 0 0 44.8h64.384l-0.224 0.16-64 64a22.368 22.368 0 1 0 31.68 31.68l64-64 0.16-0.224 0.16 0.224 64 64a22.4 22.4 0 0 0 31.68 0M512 487.616c-14.976 0-29.952 2.688-42.208 8.128l-277.76 123.68v-555.328A64 64 0 0 1 255.744 0h512.448A64 64 0 0 1 832 64.096V621.216l-277.824-125.44c-12.16-5.44-27.168-8.16-42.176-8.16M768.224 768H255.776A64 64 0 0 1 192 703.936v-14.464l303.776-135.232c7.872-3.52 24.576-3.52 32.416 0L832 691.392v12.544A64 64 0 0 1 768.224 768"  horiz-adv-x="1024" />

    
    <glyph glyph-name="refresh" unicode="&#59166;" d="M832 384a32 32 0 0 1-32-32c0-158.784-129.216-288-288-288s-288 129.216-288 288 129.216 288 288 288c66.208 0 129.536-22.752 180.608-64H608a32 32 0 0 1 0-64h160a32 32 0 0 1 32 32V704a32 32 0 0 1-64 0v-80.96A350.464 350.464 0 0 1 512 704C317.92 704 160 546.08 160 352s157.92-352 352-352 352 157.92 352 352a32 32 0 0 1-32 32"  horiz-adv-x="1024" />

    
    <glyph glyph-name="remind" unicode="&#59167;" d="M612.576 177.44H244.896c20.96 44.448 49.184 112.64 49.184 157.984v160.64C294.08 610.784 391.84 704 512 704c120.16 0 217.92-93.248 217.92-207.904v-158.336c0-45.952 28.448-115.36 49.44-160.32h-166.784z m-100.576-96c-24.704 0-46.08 12.96-57.728 32h115.456c-11.648-19.04-33.024-32-57.728-32z m346.144 81.056l2.24 1.088c-17.664 33.12-63.424 128.96-63.424 174.176v158.336C796.96 646.016 669.12 768 512 768c-157.12 0-284.96-121.984-284.96-271.904v-160.672c0-39.52-38.848-126.272-63.328-171.68l2.24-1.12a30.24 30.24 0 0 1-5.952-17.184c0-17.664 15.04-32 33.536-32h189.12c15.008-55.04 67.072-96 129.344-96 62.272 0 114.336 40.96 129.344 96h189.12c18.528 0 33.536 14.336 33.536 32a30.4 30.4 0 0 1-5.856 17.056z"  horiz-adv-x="1024" />

    
    <glyph glyph-name="scan" unicode="&#59170;" d="M832 416H192a32 32 0 0 1 0-64h640a32 32 0 0 1 0 64M800.256 736H223.712a63.808 63.808 0 0 1-63.68-63.744V512a32 32 0 1 1 64 0l-0.32 160 576.32 0.256V512a32 32 0 1 1 64 0V672.256A63.84 63.84 0 0 1 800.224 736M832 288a32 32 0 0 1-32-32l0.256-160L224 95.744V256a32 32 0 0 1-64 0v-160.256C160 60.608 188.608 32 223.744 32h576.512A63.84 63.84 0 0 1 864 95.744V256a32 32 0 0 1-32 32"  horiz-adv-x="1024" />

    
    <glyph glyph-name="select_fill" unicode="&#59173;" d="M808.384 330.752c15.008 14.72 20.416 32.928 14.848 49.984-5.568 16.96-20.64 28.48-41.312 31.488l-144.352 21.12c-6.944 1.056-18.4 9.472-21.504 15.776l-64.544 131.84c-9.28 18.944-24.864 29.76-42.816 29.76s-33.536-10.816-42.816-29.76l-64.576-131.84c-3.104-6.336-14.528-14.752-21.472-15.744l-144.352-21.152c-20.736-3.04-35.84-14.56-41.344-31.552-5.568-17.056-0.128-35.264 14.848-49.92l104.448-102.592c5.056-4.992 9.472-18.752 8.288-25.824l-24.672-144.832c-2.816-16.48 0.64-31.488 9.792-42.304 8.224-9.728 20-15.104 33.152-15.104 8.64 0 17.536 2.336 26.4 7.04l129.12 68.416c4.576 2.432 21.76 2.432 26.336 0l129.152-68.416c22.144-11.712 45.856-8.096 59.52 8.064 9.12 10.816 12.576 25.824 9.76 42.304l-24.64 144.8c-1.184 7.104 3.2 20.864 8.288 25.856l104.448 102.592zM301.248 494.656a32 32 0 0 1 32 32V695.36a32 32 0 0 1-64 0v-168.704a32 32 0 0 1 32-32M429.248 590.656a32 32 0 0 1 32 32V695.36a32 32 0 0 1-64 0v-72.704a32 32 0 0 1 32-32M589.248 590.656a32 32 0 0 1 32 32V695.36a32 32 0 0 1-64 0v-72.704a32 32 0 0 1 32-32M717.248 503.36a32 32 0 0 1 32 32V704a32 32 0 0 1-64 0v-168.64a32 32 0 0 1 32-32"  horiz-adv-x="1024" />

    
    <glyph glyph-name="service" unicode="&#59175;" d="M224 63.808V576l576 0.224L800.256 64 224 63.808zM512 736c52.928 0 96-43.04 96-96h-192c0 52.96 43.072 96 96 96z m288.256-96H672c0 88.224-71.776 160-160 160s-160-71.776-160-160H223.744A63.84 63.84 0 0 1 160 576.224v-512.416C160 28.608 188.608 0 223.744 0h576.512A63.872 63.872 0 0 1 864 63.808V576.224A63.84 63.84 0 0 1 800.256 640zM700.64 283.712a32 32 0 0 1-43.712-11.68A160.608 160.608 0 0 0 518.304 192a160.576 160.576 0 0 0-138.592 80 32 32 0 0 1-55.424-32.032 224.896 224.896 0 0 1 194.016-112 224.768 224.768 0 0 1 194.016 112 32 32 0 0 1-11.68 43.744"  horiz-adv-x="1024" />

    
    <glyph glyph-name="setup" unicode="&#59176;" d="M825.312 329.184a127.04 127.04 0 0 1-91.616-62.624 127.232 127.232 0 0 1-8.448-110.56 318.976 318.976 0 0 0-113.216-65.472A127.072 127.072 0 0 1 512 138.56a127.2 127.2 0 0 1-100.064-48 319.232 319.232 0 0 0-113.216 65.44 127.232 127.232 0 0 1-8.416 110.56 127.04 127.04 0 0 1-91.648 62.624 323.232 323.232 0 0 0 0 130.784 127.104 127.104 0 0 1 91.648 62.592 127.296 127.296 0 0 1 8.416 110.592 318.976 318.976 0 0 0 113.216 65.472A127.232 127.232 0 0 1 512 650.56c39.712 0 76.064 17.92 100.032 48.064a318.72 318.72 0 0 0 113.216-65.472 127.328 127.328 0 0 1 8.448-110.592 127.104 127.104 0 0 1 91.616-62.592 321.536 321.536 0 0 0 0-130.784m56.16 170.304a31.776 31.776 0 0 1-32.832 23.2 63.584 63.584 0 0 0-59.52 31.872 63.744 63.744 0 0 0 2.112 67.52 32 32 0 0 1-3.68 39.936 383.392 383.392 0 0 1-181.696 104.992 31.968 31.968 0 0 1-36.48-16.832A63.68 63.68 0 0 0 512 714.56a63.68 63.68 0 0 0-57.376 35.616 32 32 0 0 1-36.48 16.832 383.264 383.264 0 0 1-181.696-104.96 32 32 0 0 1-3.712-40 63.68 63.68 0 0 0 2.112-67.488 63.68 63.68 0 0 0-59.52-31.872 31.52 31.52 0 0 1-32.8-23.2A383.136 383.136 0 0 1 128 394.56c0-35.648 4.864-70.944 14.528-104.896a31.904 31.904 0 0 1 32.8-23.2 64.032 64.032 0 0 0 59.52-31.904c12.256-21.184 11.456-47.04-2.112-67.456a32 32 0 0 1 3.712-39.968 382.88 382.88 0 0 1 181.696-104.96 31.936 31.936 0 0 1 36.48 16.8A63.648 63.648 0 0 0 512 74.56c24.512 0 46.496-13.632 57.376-35.584a32 32 0 0 1 36.48-16.832 383.04 383.04 0 0 1 181.696 104.992 32 32 0 0 1 3.68 40 63.68 63.68 0 0 0-2.112 67.424 63.136 63.136 0 0 0 59.52 31.904c15.04-0.896 28.704 8.736 32.832 23.2A384.64 384.64 0 0 1 896 394.56c0 35.648-4.896 70.944-14.528 104.96M512 298.56c-52.928 0-96 43.104-96 96 0 52.96 43.072 96 96 96s96-43.04 96-96c0-52.896-43.072-96-96-96m0 256c-88.224 0-160-71.744-160-160 0-88.224 71.776-160 160-160s160 71.808 160 160c0 88.256-71.776 160-160 160"  horiz-adv-x="1024" />

    
    <glyph glyph-name="share_fill" unicode="&#59177;" d="M736 288a127.776 127.776 0 0 1-115.232-73.28l-204.896 117.056a30.848 30.848 0 0 1-9.696 3.2A127.68 127.68 0 0 1 416 384c0 6.656-0.992 13.088-1.984 19.456 0.608 0.32 1.28 0.416 1.856 0.768l219.616 125.472A127.328 127.328 0 0 1 736 480c70.592 0 128 57.408 128 128s-57.408 128-128 128-128-57.408-128-128c0-6.72 0.992-13.152 1.984-19.616-0.608-0.288-1.28-0.256-1.856-0.608l-219.616-125.472A127.328 127.328 0 0 1 288 512c-70.592 0-128-57.408-128-128s57.408-128 128-128a126.912 126.912 0 0 1 84.544 32.64 31.232 31.232 0 0 1 11.584-12.416l224-128c0.352-0.224 0.736-0.256 1.12-0.448C615.488 83.008 669.6 32 736 32c70.592 0 128 57.408 128 128s-57.408 128-128 128"  horiz-adv-x="1024" />

    
    <glyph glyph-name="shielding" unicode="&#59178;" d="M512.608 128H223.872A31.904 31.904 0 0 0 192 159.84L192.096 640h608.192c17.504 0 31.68-14.432 31.68-32.128v-161.856a32 32 0 0 1 64 0V607.872A96 96 0 0 1 800.32 704H192.096A64 64 0 0 1 128 640.224v-480.384A96 96 0 0 1 223.872 64h288.736a32 32 0 0 1 0 64M416 384H288a32 32 0 0 1 0-64h128a32 32 0 0 1 0 64M416 256H288a32 32 0 0 1 0-64h128a32 32 0 0 1 0 64M544 512H288a32 32 0 0 1 0-64h256a32 32 0 0 1 0 64M768 64c-70.592 0-128 57.408-128 128 0 23.68 6.88 45.568 18.144 64.608l174.464-174.464A126.304 126.304 0 0 0 768 64m0 256c70.592 0 128-57.408 128-128 0-23.68-6.88-45.568-18.144-64.608l-174.464 174.464A126.304 126.304 0 0 0 768 320m0 64c-105.888 0-192-86.112-192-192s86.112-192 192-192 192 86.112 192 192-86.112 192-192 192"  horiz-adv-x="1024" />

    
    <glyph glyph-name="smallscreen_fill" unicode="&#59179;" d="M742.624 553.376l-169.76-169.76 67.424 0.128a32 32 0 0 0 0-64h-128.544A63.84 63.84 0 0 0 448 383.488V512a32 32 0 1 0 64 0v-98.752l185.376 185.376a31.968 31.968 0 1 0 45.248-45.248zM352 159.744v-63.808H224V224h128v-64.256zM800.32 736H223.712A63.84 63.84 0 0 1 160 672.256V95.68C160 60.576 188.608 32 223.712 32H800.32A63.808 63.808 0 0 1 864 95.744V672.256A63.808 63.808 0 0 1 800.32 736z"  horiz-adv-x="1024" />

    
    <glyph glyph-name="suspend" unicode="&#59182;" d="M352 704a32 32 0 0 1-32-32v-608.832a32 32 0 1 1 64 0V672a32 32 0 0 1-32 32M672 704a32 32 0 0 1-32-32v-608.832a32 32 0 1 1 64 0V672a32 32 0 0 1-32 32"  horiz-adv-x="1024" />

    
    <glyph glyph-name="systemprompt" unicode="&#59184;" d="M746.88 586.112a30.272 30.272 0 0 1-42.112-9.344 31.424 31.424 0 0 1 8.896-42.944c3.296-2.24 81.824-56.576 81.824-191.68 0-135.456-75.328-189.824-78.304-191.872a31.36 31.36 0 0 1-8.512-43.2 30.496 30.496 0 0 1 42.496-8.576c4.32 2.88 105.632 73.376 105.632 243.68 0 170.56-105.408 241.024-109.92 243.936M651.456 494.72a30.304 30.304 0 0 1-40.416-14.592 31.552 31.552 0 0 1 13.984-41.504c1.952-1.024 47.872-25.216 47.872-94.208 0-73.664-42.944-98.08-44.352-98.88a31.328 31.328 0 0 1-13.728-41.76 30.656 30.656 0 0 1 41.152-13.952c3.2 1.664 78.208 41.056 78.208 154.56 0 109.6-79.36 148.736-82.72 150.368M512 119.328l-64 58.176-104.768 95.264a32.064 32.064 0 0 1-21.568 8.32L224 281.056l-0.32 205.504h128.576c9.856-1.824 19.968 1.024 27.424 7.776l68.288 62.112 64 58.176v-495.296z m38.016 581.216c-7.84 3.456-28.512 9.248-51.2-11.392L448 642.944l-101.632-92.384H223.68A63.936 63.936 0 0 1 160 486.592v-205.536c0-35.264 28.576-63.968 63.68-63.968h85.632L448 91.008l50.88-46.24c12.832-11.648 24.992-14.912 34.56-14.912 7.392 0 13.28 1.952 16.672 3.456 7.808 3.456 25.92 14.784 25.92 45.408V655.264c0 21.152-9.728 38.048-26.016 45.28z"  horiz-adv-x="1024" />

    
    <glyph glyph-name="task_fill" unicode="&#59186;" d="M666.304 422.464l-175.616-192c-6.08-6.624-14.656-10.4-23.648-10.4h-0.16a32.064 32.064 0 0 0-23.68 10.688l-85.728 96a32 32 0 1 0 47.744 42.624l62.112-69.6 151.712 165.888a32.032 32.032 0 0 0 47.264-43.2m133.568 312.32H736c-0.064 0 0-20.544 0-32.32v-63.36a64.16 64.16 0 0 0-63.808-64.384h-320.32A64.16 64.16 0 0 0 288 639.072v63.36c0 11.84-0.128 21.472-0.128 32.32H223.744A63.808 63.808 0 0 1 160 671.04v-576.512c0-35.168 28.576-63.744 63.744-63.744H800.32A63.808 63.808 0 0 1 864 94.496V671.04c0 35.136-28.8 63.744-64.128 63.744M668.608 746.56a42.56 42.56 0 0 1-36.8 21.44H395.84c-15.776 0-29.44-8.64-36.864-21.408a43.136 43.136 0 0 1-6.016-21.728v-42.496c0-23.84 19.2-43.2 42.88-43.2h235.968c23.616 0 42.816 19.36 42.816 43.2V724.864c0 8-2.272 15.264-6.016 21.696"  horiz-adv-x="1024" />

    
    <glyph glyph-name="tasklist" unicode="&#59187;" d="M832.452066 638.935216H704.333401v85.520142c0 32.988074-28.884086 42.676865-63.951548 42.676865H383.694441c-35.098696 0-63.951548-9.545932-63.951548-42.676865v-85.520142h-128.118665c-35.668083 0-64.176845-28.619874-64.176845-64.096455v-480.740056c0-35.235923 28.79448-64.098503 64.176845-64.098503h640.827838c35.668083 0 64.176845 28.621923 64.176845 64.098503V574.838761c-0.000512 35.235411-28.79448 64.096455-64.176845 64.096455zM383.841396 703.03372h256.393502v-64.098504H383.841396v64.098504z m-192.217168-128.197007s640.905668-0.129034 640.905668 0.002048c0 0 0.015873-56.003688 0.027138-129.745923-2.521277 0.637488-4.945267 1.54738-7.664191 1.54738H191.545886c-0.013825 0-0.023554-0.007681-0.037379-0.007681 0.012289 72.96496 0.043523 128.204175 0.115721 128.204176zM567.245871 382.541715c-11.103041-19.078039-31.54259-32.048996-55.20798-32.048996-23.665391 0-44.10494 12.970957-55.207981 32.048996h110.415961z m265.206195-288.44301s-640.905668 0.131082-640.905668 0c0 0-0.043011 154.589002-0.040963 288.45069 0.013825 0 0.02765-0.007681 0.040963-0.00768h196.827562C402.671096 327.345511 452.372616 286.394216 512.038403 286.394216S621.405197 327.345511 635.702846 382.541715h189.191021c2.720972 0 5.150594 0.90938 7.67392 1.549428 0.015361-134.216018 0.003584-289.992437-0.115721-289.992438z"  horiz-adv-x="1024" />

    
    <glyph glyph-name="video_fill" unicode="&#59196;" d="M304 448a48 48 0 1 0 0.032 96.032 48 48 0 0 0 0-96m606.976 124.256a32.192 32.192 0 0 1-32.96-1.792l-91.52-62.048V608a64.064 64.064 0 0 1-64 64.032H192a64.064 64.064 0 0 1-64-64V160c0-35.328 28.704-64 64-64h530.56a64.064 64.064 0 0 1 63.936 64v42.592l0.384 25.312 91.04-62.336A32 32 0 0 1 928 192V544c0 11.84-6.56 22.72-16.96 28.288"  horiz-adv-x="1024" />

    
    <glyph glyph-name="warning_fill" unicode="&#59197;" d="M522.656 219.936a32 32 0 1 0 0-64 32 32 0 0 0 0 64z m-32 256a32 32 0 1 0 64 0v-160a32 32 0 1 0-64 0v160z m418.528-363.584L566.528 708.288c-10.112 17.6-26.112 27.712-43.872 27.712s-33.728-10.08-43.872-27.712L136.16 112.384c-10.112-17.6-10.816-36.512-1.92-51.84 8.864-15.36 25.568-24.16 45.76-24.16h685.344c20.224 0 36.896 8.768 45.76 24.128 8.928 15.36 8.224 34.272-1.92 51.84z"  horiz-adv-x="1024" />

    
    <glyph glyph-name="gold" unicode="&#58880;" d="M692.755 322.75l-189.945-111.145c-61.32 37.611-177.798 102.292-177.798 102.292l-210.512-205.316 168.239-3.71 3.749-168.371 225.544 224.521c26.959-25.862 59.334-56.586 58.445-57.349l167.036-167.17 3.748 168.371 168.24 3.71-216.746 214.167zM649.788 302.519l-146.978-90.913c-61.32 37.611-143.677 90.912-143.677 90.912l-197.14-194.721 120.745-2.924 3.1-95.702 193.348 192.193c26.959-25.862 60.283-0.503 59.395-1.265l199.669-202.308 3.009 107.083 114.516 2.923-205.987 194.722zM622.741 199.262l64.848-10.694c2.015-0.349 4.335-0.55 6.702-0.55 0.019-0 0.041-0 0.064-0 9.121 0 17.545 2.98 24.353 8.020 9.119 6.708 15.42 17.253 16.538 29.303l9.505 62.636c2.16 13.842 11.080 25.203 23.216 30.733l57.353 28.737c9.842 4.909 17.285 13.613 20.695 24.059 1.282 3.803 2.022 8.185 2.022 12.739 0 0.018 0 0.039 0 0.060 0 6.974-1.742 13.541-4.815 19.29l-29.981 57.965c-2.847 5.386-4.52 11.773-4.52 18.55s1.672 13.164 4.626 18.771l30.091 58.185c2.898 5.49 4.599 11.999 4.599 18.906 0 4.553-0.739 8.934-2.105 13.028-3.327 10.157-10.77 18.863-20.61 23.772l-58.729 29.409c-12.073 6.15-20.543 17.872-22.053 31.687l-9.577 63.301c-1.865 12.057-8.726 22.22-18.359 28.465-4.817 3.617-13.22 6.566-22.31 6.566-2.368 0-4.688-0.199-6.945-0.585l-64.606-10.662c-1.978-0.344-4.256-0.54-6.579-0.54-11.228 0-21.386 4.589-28.7 11.995l-46.188 46.816c-7.458 7.579-17.824 12.275-29.285 12.276-11.455-0.004-21.816-4.703-29.265-12.276l-46.185-46.809c-7.317-7.411-17.476-12-28.704-12-2.324 0-4.602 0.196-6.818 0.575l-64.611 10.663c-2.014 0.348-4.332 0.549-6.697 0.549-0.018 0-0.040 0-0.061 0-9.122 0-17.548-2.98-24.358-8.021-9.121-6.708-15.422-17.252-16.539-29.302l-9.505-62.633c-2.158-13.841-11.078-25.202-23.214-30.731l-57.354-28.739c-9.843-4.909-17.285-13.614-20.695-24.062-1.282-3.805-2.022-8.186-2.022-12.741-0-0.018-0-0.040-0-0.062 0-6.973 1.742-13.538 4.814-19.286l29.983-57.962c2.847-5.386 4.52-11.773 4.52-18.55 0-0.018 0-0.039 0-0.060 0-6.844-1.712-13.287-4.731-18.926l-29.987-57.974c-2.897-5.489-4.598-11.998-4.598-18.904 0-4.555 0.739-8.937 2.106-13.032 3.326-10.155 10.768-18.858 20.611-23.769l58.729-29.404c12.073-6.154 20.542-17.875 22.052-31.691l9.576-63.297c1.868-12.059 8.729-22.223 18.365-28.471 4.815-3.613 13.218-6.56 22.31-6.56 0.006-0 0.014-0 0.022-0 2.444 0 4.839 0.212 7.167 0.619l64.359 10.624c1.978 0.344 4.258 0.541 6.583 0.541 11.227 0 21.384-4.588 28.696-11.993l46.188-46.816c7.453-7.579 17.815-12.274 29.273-12.276 11.457 0.001 21.821 4.698 29.273 12.272l46.188 46.817c7.317 7.406 17.471 11.993 28.698 11.993 2.325 0 4.605-0.196 6.823-0.575l-0.242 0.031zM511.991 242.505c-134.324 0-243.621 109.355-243.621 243.744 0 134.416 109.296 243.771 243.621 243.771 134.343 0 243.64-109.355 243.64-243.771-0.001-134.389-109.298-243.744-243.64-243.744zM511.993 293.38c-106.292 0-192.777 86.531-192.777 192.87 0 106.365 86.485 192.896 192.777 192.896 106.303 0 192.791-86.533 192.791-192.896 0-106.339-86.488-192.87-192.791-192.87zM511.773 920.671s-0.284-0.157-0.544-0.297c-0.007 0.223-0.007 0.538-0.007 0.538 0.4 0.296 0.532 0.391 0.939 0.623 0.113 0.043 0.189-0.033 0.188-0.063-0.060-1.635-0.087-2.155-0.077-4.118h-0.545c-0.008 2.783 0.049 3.319 0.049 3.319h0.001z"  horiz-adv-x="1024" />

    
    <glyph glyph-name="weizhi" unicode="&#59369;" d="M876.288 521.152h-64C812.288 692.544 677.568 832 512 832V896c200.896 0 364.288-168.128 364.288-374.848zM512-128C427.008-128 147.712 266.368 147.712 521.152 147.712 727.872 311.104 896 512 896v-64C346.432 832 211.712 692.544 211.712 521.152c0-234.688 252.672-568 304.128-585.664L512-128zM512-128v64c48.96 17.472 300.288 343.808 300.288 585.152h64C876.288 258.368 599.104-128 512-128zM512 352c-97.088 0-176 78.912-176 176S414.912 704 512 704s176-78.912 176-176S609.088 352 512 352zM512 640c-61.76 0-112-50.24-112-112S450.24 416 512 416s112 50.24 112 112S573.76 640 512 640z"  horiz-adv-x="1024" />

    
    <glyph glyph-name="financial_fill" unicode="&#59211;" d="M483.20512 737.9968c-5.23776 4.03456-13.09696 6.6816-23.58272 7.94624-10.48064 1.25952-19.97824-0.128-28.50304-4.16256-11.136-5.54496-18.9952-10.2144-23.58272-13.99808-4.58752-3.78368-11.46368-6.43072-20.63872-7.94112-5.24288-1.00864-10.97728-0.76288-17.19808 0.75776a1831.72096 1831.72096 0 0 1-19.16416 4.54144 134.68672 134.68672 0 0 1-18.67264 3.02592c-5.89824 0.50176-11.14112-0.50688-15.72864-3.02592-9.16992-5.55008-12.11904-12.2368-8.84736-20.05504 3.28192-7.81824 9.17504-13.99296 17.69472-18.5344a310.29248 310.29248 0 0 0 24.07936-15.5136 123.93984 123.93984 0 0 0 22.11328-20.05504c3.2768-4.03456 7.20384-8.576 11.79136-13.6192a260.7104 260.7104 0 0 0 12.7744-15.1296 515.52256 515.52256 0 0 0 13.75744-17.408h203.44832a166.5024 166.5024 0 0 1 12.7744 15.89248 196.50048 196.50048 0 0 0 10.81344 13.62432 468.47488 468.47488 0 0 0 10.80832 12.10368 498.93376 498.93376 0 0 0 19.65568 20.05504c6.5536 6.30272 16.05632 12.48768 28.50304 18.5344a41.74848 41.74848 0 0 1 13.27104 9.84064c3.60448 4.03456 5.89824 8.07424 6.88128 12.10368 0.97792 4.03968 0.32256 7.94624-1.9712 11.72992s-6.71232 6.68672-13.26592 8.704c-5.89824 1.51552-10.97728 2.01728-15.22688 1.51552-4.26496-0.50688-8.51456-1.38752-12.77952-2.64704-4.25984-1.26464-8.68352-2.64704-13.2608-4.16256-4.59264-1.51552-10.1632-2.26816-16.71168-2.26816-6.5536 0-11.9552 0.88064-16.21504 2.64704a61.58336 61.58336 0 0 0-11.79136 6.43584c-3.6096 2.51904-7.3728 5.1712-11.30496 7.94624s-9.17504 4.9152-15.72864 6.43072c-13.09696 4.03456-23.58784 4.7872-31.44704 2.26816-7.86944-2.51904-15.72864-6.55872-23.58784-12.10368-6.5536-5.0432-11.79136-8.58112-15.72352-10.5984-1.9712-1.00352-3.60448-1.5104-4.9152-1.5104a65.30048 65.30048 0 0 0-10.81344 5.29408M344.41728 501.56032a1166.30016 1166.30016 0 0 0-43.88352-35.93728 358.26688 358.26688 0 0 1-51.8144-48.7424 270.4896 270.4896 0 0 1-39.68-59.89888c-10.58304-21.75488-17.8944-45.0304-21.9392-69.8112-4.03968-24.78592-3.26656-50.67264 2.33984-77.66016 4.98176-24.23808 15.24736-48.60416 30.81216-73.11872 15.55456-24.50944 36.56192-46.67904 63.01696-66.49856 26.44992-19.82464 58.65984-35.93728 96.62464-48.32768 37.96992-12.3904 81.54112-18.59584 130.70848-18.59584 47.92832 0 90.72128 5.37088 128.37376 16.11776 37.65248 10.74176 70.17984 25.19552 97.5616 43.37152 27.38688 18.17088 53.37088 38.55872 69.8624 63.06304 16.49664 24.50432 28.95872 54.01088 34.56 81.55648 6.2208 33.60256 4.66944 60.36992 0 87.63904-4.67456 27.25888-16.04096 52.48-27.86304 73.41056-11.83232 20.93056-25.6768 39.2448-41.5488 54.94784-15.87712 15.6928-31.27808 29.32224-46.21824 40.88832-18.048 13.21984-30.68416 20.97152-44.36992 32.8192-13.69088 11.84256-23.94624 16.18944-33.28 25.56416-11.20256 10.46528-25.80992 17.96096-33.28 26.7776H404.34176m216.93952-339.9936c13.71648 0 24.84224-10.64448 24.84224-23.7824 0-13.1328-11.12064-23.7824-24.84224-23.7824h-81.62304v-20.3776c0-13.1328-11.12576-23.7824-24.84224-23.7824-13.71648 0-24.84224 10.64448-24.84224 23.7824v20.3776H408.35072c-13.71648 0-24.84224 10.64448-24.84224 23.7824 0 13.1328 11.12064 23.7824 24.84224 23.7824h81.62304v54.35904H408.35072c-13.71648 0-24.84224 10.64448-24.84224 23.7824 0 13.1328 11.12064 23.7824 24.84224 23.7824H479.6928l-0.18944 0.17408-70.97856 67.9424c-9.7024 9.28768-9.7024 24.3456 0 33.63328s25.43104 9.28768 35.13344 0l70.97856-67.95264 0.1792-0.16896 0.1792 0.16896 70.97856 67.94752c9.69728 9.28768 25.42592 9.28768 35.12832 0a23.07072 23.07072 0 0 0 0-33.63328l-70.97856-67.9424-0.18944-0.17408h71.34208c13.71648 0 24.84224-10.64448 24.84224-23.7824s-11.12064-23.7824-24.84224-23.7824h-81.62304v-54.35392h81.62816z"  horiz-adv-x="1024" />

    
    <glyph glyph-name="ziyuanshangke" unicode="&#58894;" d="M1387.725217 588.631054a70.835162 70.835162 0 0 1-40.017267 91.993716L725.370457 889.910476a151.329664 151.329664 0 0 1-94.753529-3.21978l-24.378335-8.739403L28.518052 624.048634a45.996858 45.996858 0 0 1-22.53846-22.998429 69.915225 69.915225 0 0 1 36.797486-91.993716l223.544732-91.993717v-319.218197a45.996858 45.996858 0 0 1 3.679749-17.938775s11.959183-26.218209 15.638932-33.577707c55.656199-103.9529 225.384606-173.868125 421.331222-173.868124s359.695433 68.995288 420.411286 172.02825c3.679749 5.979592 9.199372 17.018838 15.638932 28.518052a45.996858 45.996858 0 0 1 5.059654 20.698586V448.340635l74.974879 36.797487v-238.723695a45.996858 45.996858 0 1 1 88.313968 0V516.875954l52.436419 37.717424a76.814753 76.814753 0 0 1 23.918366 34.037676zM632.916771 793.777042a155.92935 155.92935 0 0 0 50.596545 13.339089 285.640491 285.640491 0 0 0 58.875978-15.178963L1287.912035 614.389294l-563.921484-275.98115a33.577707 33.577707 0 0 0-28.978021-2.759812L126.031392 570.23231l505.965442 223.084763z m427.310815-689.952876l-8.279435-15.178963c-38.177392-63.935633-168.348502-128.791203-344.516469-128.791203s-309.558857 63.935633-343.596532 126.951329l-9.199372 19.778649v275.98115l309.558857-127.411298a157.769224 157.769224 0 0 1 35.87755-4.599686 126.491361 126.491361 0 0 1 53.356355 12.419152l299.899517 146.27001v-190.426994l4.599686-114.532177z m207.905799 23.458398a45.996858 45.996858 0 0 1-45.996858-45.996858v-43.237047a45.996858 45.996858 0 0 1 88.313968 0v43.237047a45.996858 45.996858 0 0 1-45.996858 45.996858z"  horiz-adv-x="1393" />

    
    <glyph glyph-name="shake" unicode="&#59214;" d="M835.2512 391.20896c0 29.7472-14.8736 57.3696-38.95296 75.07456-9.91744 6.3744-22.66624 4.2496-29.7472-5.66784-6.3744-9.91744-4.2496-22.66624 5.66784-29.7472 12.7488-9.20576 21.248-24.07936 21.248-39.66464 0-15.58016-7.79264-30.45376-21.248-39.66464-9.91744-6.3744-12.04224-19.82976-5.66784-29.7472 4.2496-5.66784 10.624-9.20576 17.70496-9.20576 4.2496 0 8.4992 1.41824 12.04224 3.54304 24.07936 17.71008 38.95296 45.33248 38.95296 75.07968zM834.8672 537.82016c-9.91744 6.3744-22.66624 4.2496-29.7472-5.66784-6.3744-9.91744-4.2496-22.66624 5.66784-29.7472 36.82816-25.4976 58.07616-67.28704 58.07616-111.19616 0-44.6208-21.95456-86.41024-58.07616-111.19616-9.91744-6.3744-12.04224-19.82976-5.66784-29.7472 4.2496-5.66784 10.624-9.20576 17.70496-9.20576 4.2496 0 8.4992 1.41824 12.04224 3.54304 48.16384 33.9968 76.4928 88.53504 76.4928 146.6112s-28.32896 113.32096-76.4928 146.60608zM265.07776 427.33056c9.91744 6.3744 12.04224 19.82976 5.66784 29.7472-6.3744 9.91744-19.82976 12.04224-29.7472 5.66784-24.79104-17.70496-40.3712-46.03904-40.3712-76.4928s14.8736-59.4944 40.3712-76.4928c3.54304-2.83136 7.79264-3.54304 12.04224-3.54304 7.08096 0 13.45536 3.54304 17.70496 9.20576 6.3744 9.91744 4.2496 22.66624-5.66784 29.7472a50.71872 50.71872 0 0 0-21.95456 41.78944c0 15.58528 8.4992 31.16544 21.95456 40.3712zM221.16864 270.09536C182.92224 296.29952 160.256 339.5072 160.256 385.54112s22.66624 89.2416 60.91264 115.44576c9.91744 6.3744 12.04224 19.82976 5.66784 29.7472-6.3744 9.91744-19.82976 12.04224-29.7472 5.66784C147.5072 502.41024 117.76 445.7472 117.76 385.54624s29.7472-116.15744 78.6176-150.8608c3.54304-2.83136 7.79264-3.54304 12.04224-3.54304 7.08096 0 13.45536 3.54304 17.70496 9.20576 7.08096 9.91744 4.2496 23.3728-4.95616 29.7472zM631.76192 210.58048l-285.11744 51.87584 71.99744 395.5712 285.12768-51.712-71.94624-395.76576-0.06144 0.03072z m-141.84448-89.56928l-42.07104 7.6544a21.38112 21.38112 0 0 0 7.6544 42.07104l42.07104-7.6544a21.38112 21.38112 0 0 0-7.6544-42.07104z m227.32288 532.86912l-294.4512 53.57568a42.76224 42.76224 0 0 1-49.7152-34.24256L275.70688 138.08128a42.76224 42.76224 0 0 1 34.46784-49.5616l294.4512-53.57568a42.76224 42.76224 0 0 1 49.7152 34.24256L751.70816 604.3136a42.76736 42.76736 0 0 1-34.46784 49.56672z"  horiz-adv-x="1024" />

    
    <glyph glyph-name="decoration_fill" unicode="&#59215;" d="M413.39904 691.8144c-33.56672 0-43.31008-2.74432-68.46464-10.69056-25.19552-7.94112-18.63168-16.6144-5.53984-29.70624 13.13792-13.17888 76.23168-79.02208 76.23168-79.02208a27.68896 27.68896 0 0 0-0.73216-39.06048L335.49312 456.76544a27.71968 27.71968 0 0 0-39.06048 0.6912S230.93248 525.7472 221.35808 535.27552c-9.52832 9.5744-23.95136 21.33504-31.97952 0.60416-7.98208-20.73088-12.83072-40.13568-12.83072-75.15648 0-127.65696 106.02496-231.10144 236.81024-231.10144 130.83136 0 236.89728 103.44448 236.89728 231.10144 0 127.60064-106.06592 231.0912-236.85632 231.0912z m289.23392-417.2032c13.49632-13.44512 128.27648-128.32256 128.27648-128.32256s17.21856-16.20992 16.54784-31.616c-0.67072-15.45216-17.024-29.66528-17.024-29.66528l-60.416-55.88992s-10.10688-10.25024-28.32384-10.25024-34.66752 16.49664-34.66752 16.49664-118.784 119.26528-131.89632 132.3264c-4.5312 4.00384-5.8624 17.408 3.29216 21.9392 9.15456 5.67296 39.6288 22.89152 59.61216 42.86976 16.40448 16.26112 25.46176 29.70624 35.33824 43.29984 7.18336 11.78624 18.44224 9.63584 29.2608-1.18784z"  horiz-adv-x="1024" />

    
    <glyph glyph-name="wanju1" unicode="&#58948;" d="M806.148 126.404c-27.239 89.743-32.053 113.787-35.26 149.035-3.195 35.277-4.802 56.096-4.802 56.096h36.866s-9.627-17.63 4.802-19.23c14.429-1.588 59.303 33.659 88.148 67.318 28.846 33.653-40.061 49.676-51.282 57.697-11.222 8.008-11.222 131.417-11.222 131.417l-91.356 65.711-113.781-176.291-213.164-1.607-145.834 307.716-6.95 76.385-45.928 1.077-28.839-25.65v-96.169L60.384 613.07 58.26 435.713l50.206-25.644H185.4l29.917 51.295 46.999-1.089 27.811-61.957-1.089-90.814-80.682-219.566s-83.335 22.438-137.825 107.373c27.239-100.965 60.898-256.42 338.167-274.056h235.583s261.239 0 331.759 278.857c-78.537-46.463-92.966-94.55-169.892-73.708zM419.381 407.933h204.091v-75.856H419.381v75.856z m-54.49-384.648l2.16 78.004 77.974 76.934h149.601l80.128-79.063 1.06-75.874H364.891z"  horiz-adv-x="1024" />

    
    <glyph glyph-name="remen_on" unicode="&#58888;" d="M558.402 536.949c6.69-4.014 16.785-10.095 30.286-18.123 12.163-8.028 21.528-14.109 28.34-18.123v111.169h-48.53c-2.676-25.785-5.96-50.72-10.095-74.924zM94.993 876.661v-959.050c0-20.799 20.799-27.853 34.786-20.799l382.282 264.058 382.16-264.058c13.866-6.933 34.786 0 34.786 20.799v959.050h-834.014zM330.103 256.106l-58.625 28.34c24.204 37.705 42.449 71.397 54.49 100.953l58.625-24.204c-16.055-35.029-34.178-70.059-54.49-105.088zM441.272 266.202c-9.487 35.029-19.582 65.923-30.286 92.925l60.572 16.177c4.014-9.487 9.365-24.934 16.177-46.463 8.028-20.191 13.501-35.029 16.177-44.395l-62.639-18.244zM560.469 270.215c-1.338 2.676-2.676 7.419-4.014 14.109-12.163 31.016-22.866 57.288-32.353 78.816l60.572 18.123c1.338-4.014 4.014-10.095 8.028-18.123 8.028-21.528 18.123-45.125 30.286-70.667l-62.518-22.258zM685.748 260.12c-13.501 35.029-29.678 70.059-48.53 105.088l58.625 26.272c16.177-29.678 32.962-65.315 50.476-107.034l-60.572-24.326zM750.333 502.528c-1.338-16.177-2.676-29.678-4.014-40.381-8.028-44.395-27.002-66.653-56.558-66.653-45.854 0-70.059 27.61-72.735 82.83v20.191l-38.435-54.49c-4.014 4.014-10.825 9.365-20.191 16.177-9.487 8.028-16.907 13.501-22.258 16.177-16.177-33.691-39.773-63.369-70.667-88.911-14.839 17.515-30.286 34.3-46.463 50.476 28.34 21.528 49.868 47.071 64.707 76.748-14.839 10.825-29.678 20.191-44.395 28.34 0-8.028 0.608-16.177 2.068-24.204-16.177-2.676-31.624-6.081-46.463-10.095v-60.572c0-37.705-18.123-57.288-54.49-58.625-12.163 0-28.948-0.73-50.476-2.068-4.014 24.204-8.757 44.395-14.109 60.572 8.028-1.338 20.191-2.068 36.367-2.068 12.163 0 18.123 5.352 18.123 16.177v36.367c-36.297-9.405-78.212-15.313-121.332-16.357l62.828 66.834c5.352 0 14.109 1.338 26.272 4.014 14.839 1.338 25.542 2.676 32.353 4.014v54.49h-54.49v58.625h54.49v60.572h64.707v-60.572h46.463v-58.625h-46.463v-44.395c4.014 0 10.825 1.338 20.191 4.014 12.163 1.338 20.92 2.676 26.272 4.014-1.338-9.487-2.068-19.582-2.068-30.286l34.3 46.463c10.825-5.352 20.191-11.433 28.34-18.123 2.676 12.163 4.014 24.934 4.014 38.435h-48.53v56.558h50.476v60.572h62.639v-60.572h109.102v-18.123c-2.676-63.369-3.406-119.197-2.068-167.727 0-12.163 4.014-18.123 12.163-18.123 6.69 0 10.095 5.352 10.095 16.177 2.676 17.515 4.744 38.435 6.081 62.639 2.676-1.338 8.028-3.406 16.177-6.081 4.014-2.676 14.109-7.419 30.286-14.109-0.243-4.135-0.973-10.825-2.311-20.312z"  horiz-adv-x="1024" />

    
    <glyph glyph-name="game" unicode="&#58899;" d="M728.563 486.481h-432.773c-129.112 0-233.789-114.697-233.789-256.114s104.678-256.114 233.701-256.114h432.862c129.112 0 233.789 114.697 233.789 256.114s-104.678 256.114-233.789 256.114v0zM373.66 196.178h-51.943v-51.24c0-18.896-15.469-34.19-34.629-34.19-19.072 0-34.629 15.293-34.629 34.19v51.24h-51.943c-19.161 0-34.628 15.293-34.628 34.102 0 18.896 15.469 34.19 34.628 34.19h51.943v51.24c0 18.896 15.469 34.102 34.629 34.102s34.629-15.293 34.629-34.102v-51.24h51.943c19.161 0 34.629-15.293 34.629-34.19 0-18.809-15.469-34.102-34.629-34.102v0zM650.692 196.178c-19.161 0-34.629 15.293-34.629 34.102 0 18.896 15.469 34.19 34.629 34.19 19.161 0 34.629-15.293 34.629-34.19 0-18.809-15.469-34.102-34.629-34.102v0zM737.263 110.836c-19.161 0-34.629 15.293-34.629 34.19s15.469 34.102 34.629 34.102c19.161 0 34.629-15.293 34.629-34.102 0-18.896-15.557-34.19-34.629-34.19v0zM737.263 281.519c-19.161 0-34.629 15.293-34.629 34.19s15.469 34.102 34.629 34.102c19.161 0 34.629-15.293 34.629-34.102 0-18.896-15.557-34.19-34.629-34.19v0zM823.836 196.178c-19.161 0-34.628 15.293-34.628 34.102 0 18.896 15.469 34.19 34.628 34.19 19.161 0 34.629-15.293 34.629-34.19 0-18.809-15.557-34.102-34.629-34.102v0zM754.578 742.506v51.24h-69.258v-38.408c0-138.428-207.773 18.193-207.773-166.553v-51.24h69.258c-13.711 188.789 207.773-17.578 207.773 204.961v0z"  horiz-adv-x="1025" />

    
    </font>
</defs>
</svg>
